<mxfile host="app.diagrams.net" modified="2023-03-16T02:28:43.992Z" agent="5.0 (Windows NT 10.0; Win64; x64) AppleWebKit/537.36 (KHTML, like Gecko) Chrome/111.0.0.0 Safari/537.36" etag="NKJsYqvT_VFmQ2p90juH" version="21.0.6" type="github">
  <diagram id="dkaSFtMDAgty7cuVrgsA" name="第 1 页">
    <mxGraphModel dx="3374" dy="474" grid="1" gridSize="10" guides="1" tooltips="1" connect="1" arrows="1" fold="1" page="1" pageScale="1" pageWidth="827" pageHeight="1169" math="0" shadow="0">
      <root>
        <mxCell id="0" />
        <mxCell id="1" parent="0" />
        <mxCell id="kTVH6579CBkgdP0Tlpt9-84" value="核心计算模块" style="rounded=1;whiteSpace=wrap;html=1;fontSize=16;fontStyle=1" parent="1" vertex="1">
          <mxGeometry x="-1262" y="1300" width="120" height="182" as="geometry" />
        </mxCell>
        <mxCell id="60BEPv2QoQoY74sB4UL9-15" value="" style="shape=table;startSize=0;container=1;collapsible=0;childLayout=tableLayout;fontSize=17;fontStyle=1" parent="1" vertex="1">
          <mxGeometry x="-1340" y="190" width="540" height="30" as="geometry" />
        </mxCell>
        <mxCell id="60BEPv2QoQoY74sB4UL9-16" value="" style="shape=tableRow;horizontal=0;startSize=0;swimlaneHead=0;swimlaneBody=0;top=0;left=0;bottom=0;right=0;collapsible=0;dropTarget=0;fillColor=none;points=[[0,0.5],[1,0.5]];portConstraint=eastwest;fontSize=17;fontStyle=1" parent="60BEPv2QoQoY74sB4UL9-15" vertex="1">
          <mxGeometry width="540" height="30" as="geometry" />
        </mxCell>
        <mxCell id="60BEPv2QoQoY74sB4UL9-17" value="1" style="shape=partialRectangle;html=1;whiteSpace=wrap;connectable=0;overflow=hidden;fillColor=none;top=0;left=0;bottom=0;right=0;pointerEvents=1;fontSize=17;fontStyle=1" parent="60BEPv2QoQoY74sB4UL9-16" vertex="1">
          <mxGeometry width="60" height="30" as="geometry">
            <mxRectangle width="60" height="30" as="alternateBounds" />
          </mxGeometry>
        </mxCell>
        <mxCell id="60BEPv2QoQoY74sB4UL9-18" value="2" style="shape=partialRectangle;html=1;whiteSpace=wrap;connectable=0;overflow=hidden;fillColor=none;top=0;left=0;bottom=0;right=0;pointerEvents=1;fontSize=17;fontStyle=1" parent="60BEPv2QoQoY74sB4UL9-16" vertex="1">
          <mxGeometry x="60" width="60" height="30" as="geometry">
            <mxRectangle width="60" height="30" as="alternateBounds" />
          </mxGeometry>
        </mxCell>
        <mxCell id="60BEPv2QoQoY74sB4UL9-19" value="3" style="shape=partialRectangle;html=1;whiteSpace=wrap;connectable=0;overflow=hidden;fillColor=none;top=0;left=0;bottom=0;right=0;pointerEvents=1;fontSize=17;fontStyle=1" parent="60BEPv2QoQoY74sB4UL9-16" vertex="1">
          <mxGeometry x="120" width="60" height="30" as="geometry">
            <mxRectangle width="60" height="30" as="alternateBounds" />
          </mxGeometry>
        </mxCell>
        <mxCell id="60BEPv2QoQoY74sB4UL9-20" value="4" style="shape=partialRectangle;html=1;whiteSpace=wrap;connectable=0;overflow=hidden;fillColor=none;top=0;left=0;bottom=0;right=0;pointerEvents=1;fontSize=17;fontStyle=1" parent="60BEPv2QoQoY74sB4UL9-16" vertex="1">
          <mxGeometry x="180" width="60" height="30" as="geometry">
            <mxRectangle width="60" height="30" as="alternateBounds" />
          </mxGeometry>
        </mxCell>
        <mxCell id="60BEPv2QoQoY74sB4UL9-21" value="5" style="shape=partialRectangle;html=1;whiteSpace=wrap;connectable=0;overflow=hidden;fillColor=none;top=0;left=0;bottom=0;right=0;pointerEvents=1;fontSize=17;fontStyle=1" parent="60BEPv2QoQoY74sB4UL9-16" vertex="1">
          <mxGeometry x="240" width="60" height="30" as="geometry">
            <mxRectangle width="60" height="30" as="alternateBounds" />
          </mxGeometry>
        </mxCell>
        <mxCell id="60BEPv2QoQoY74sB4UL9-22" value="6" style="shape=partialRectangle;html=1;whiteSpace=wrap;connectable=0;overflow=hidden;fillColor=none;top=0;left=0;bottom=0;right=0;pointerEvents=1;fontSize=17;fontStyle=1" parent="60BEPv2QoQoY74sB4UL9-16" vertex="1">
          <mxGeometry x="300" width="60" height="30" as="geometry">
            <mxRectangle width="60" height="30" as="alternateBounds" />
          </mxGeometry>
        </mxCell>
        <mxCell id="60BEPv2QoQoY74sB4UL9-23" value="7" style="shape=partialRectangle;html=1;whiteSpace=wrap;connectable=0;overflow=hidden;fillColor=none;top=0;left=0;bottom=0;right=0;pointerEvents=1;fontSize=17;fontStyle=1" parent="60BEPv2QoQoY74sB4UL9-16" vertex="1">
          <mxGeometry x="360" width="60" height="30" as="geometry">
            <mxRectangle width="60" height="30" as="alternateBounds" />
          </mxGeometry>
        </mxCell>
        <mxCell id="60BEPv2QoQoY74sB4UL9-24" value="8" style="shape=partialRectangle;html=1;whiteSpace=wrap;connectable=0;overflow=hidden;fillColor=none;top=0;left=0;bottom=0;right=0;pointerEvents=1;fontSize=17;fontStyle=1" parent="60BEPv2QoQoY74sB4UL9-16" vertex="1">
          <mxGeometry x="420" width="60" height="30" as="geometry">
            <mxRectangle width="60" height="30" as="alternateBounds" />
          </mxGeometry>
        </mxCell>
        <mxCell id="60BEPv2QoQoY74sB4UL9-25" value="9" style="shape=partialRectangle;html=1;whiteSpace=wrap;connectable=0;overflow=hidden;fillColor=none;top=0;left=0;bottom=0;right=0;pointerEvents=1;fontSize=17;fontStyle=1" parent="60BEPv2QoQoY74sB4UL9-16" vertex="1">
          <mxGeometry x="480" width="60" height="30" as="geometry">
            <mxRectangle width="60" height="30" as="alternateBounds" />
          </mxGeometry>
        </mxCell>
        <mxCell id="60BEPv2QoQoY74sB4UL9-26" value="" style="shape=table;startSize=0;container=1;collapsible=0;childLayout=tableLayout;fontSize=17;" parent="1" vertex="1">
          <mxGeometry x="-930" y="310" width="600" height="260" as="geometry" />
        </mxCell>
        <mxCell id="60BEPv2QoQoY74sB4UL9-27" value="" style="shape=tableRow;horizontal=0;startSize=0;swimlaneHead=0;swimlaneBody=0;top=0;left=0;bottom=0;right=0;collapsible=0;dropTarget=0;fillColor=none;points=[[0,0.5],[1,0.5]];portConstraint=eastwest;fontSize=17;fontStyle=1" parent="60BEPv2QoQoY74sB4UL9-26" vertex="1">
          <mxGeometry width="600" height="40" as="geometry" />
        </mxCell>
        <mxCell id="60BEPv2QoQoY74sB4UL9-28" value="Cycle" style="shape=partialRectangle;html=1;whiteSpace=wrap;connectable=0;overflow=hidden;fillColor=none;top=0;left=0;bottom=0;right=0;pointerEvents=1;fontSize=17;fontStyle=1;fontColor=#FF0000;" parent="60BEPv2QoQoY74sB4UL9-27" vertex="1">
          <mxGeometry width="60" height="40" as="geometry">
            <mxRectangle width="60" height="40" as="alternateBounds" />
          </mxGeometry>
        </mxCell>
        <mxCell id="60BEPv2QoQoY74sB4UL9-29" value="&lt;span&gt;1&lt;/span&gt;" style="shape=partialRectangle;html=1;whiteSpace=wrap;connectable=0;overflow=hidden;fillColor=none;top=0;left=0;bottom=0;right=0;pointerEvents=1;fontSize=17;fontStyle=1;fontColor=#FF0000;" parent="60BEPv2QoQoY74sB4UL9-27" vertex="1">
          <mxGeometry x="60" width="60" height="40" as="geometry">
            <mxRectangle width="60" height="40" as="alternateBounds" />
          </mxGeometry>
        </mxCell>
        <mxCell id="60BEPv2QoQoY74sB4UL9-30" value="&lt;span&gt;2&lt;/span&gt;" style="shape=partialRectangle;html=1;whiteSpace=wrap;connectable=0;overflow=hidden;fillColor=none;top=0;left=0;bottom=0;right=0;pointerEvents=1;fontSize=17;fontStyle=1;fontColor=#FF0000;" parent="60BEPv2QoQoY74sB4UL9-27" vertex="1">
          <mxGeometry x="120" width="60" height="40" as="geometry">
            <mxRectangle width="60" height="40" as="alternateBounds" />
          </mxGeometry>
        </mxCell>
        <mxCell id="60BEPv2QoQoY74sB4UL9-31" value="&lt;span&gt;3&lt;/span&gt;" style="shape=partialRectangle;html=1;whiteSpace=wrap;connectable=0;overflow=hidden;fillColor=none;top=0;left=0;bottom=0;right=0;pointerEvents=1;fontSize=17;fontStyle=1;fontColor=#FF0000;" parent="60BEPv2QoQoY74sB4UL9-27" vertex="1">
          <mxGeometry x="180" width="60" height="40" as="geometry">
            <mxRectangle width="60" height="40" as="alternateBounds" />
          </mxGeometry>
        </mxCell>
        <mxCell id="60BEPv2QoQoY74sB4UL9-32" value="4" style="shape=partialRectangle;html=1;whiteSpace=wrap;connectable=0;overflow=hidden;fillColor=none;top=0;left=0;bottom=0;right=0;pointerEvents=1;fontSize=17;fontStyle=1;fontColor=#FF0000;" parent="60BEPv2QoQoY74sB4UL9-27" vertex="1">
          <mxGeometry x="240" width="60" height="40" as="geometry">
            <mxRectangle width="60" height="40" as="alternateBounds" />
          </mxGeometry>
        </mxCell>
        <mxCell id="60BEPv2QoQoY74sB4UL9-33" value="5" style="shape=partialRectangle;html=1;whiteSpace=wrap;connectable=0;overflow=hidden;fillColor=none;top=0;left=0;bottom=0;right=0;pointerEvents=1;fontSize=17;fontStyle=1;fontColor=#FF0000;" parent="60BEPv2QoQoY74sB4UL9-27" vertex="1">
          <mxGeometry x="300" width="60" height="40" as="geometry">
            <mxRectangle width="60" height="40" as="alternateBounds" />
          </mxGeometry>
        </mxCell>
        <mxCell id="60BEPv2QoQoY74sB4UL9-34" value="6" style="shape=partialRectangle;html=1;whiteSpace=wrap;connectable=0;overflow=hidden;fillColor=none;top=0;left=0;bottom=0;right=0;pointerEvents=1;fontSize=17;fontStyle=1;fontColor=#FF0000;" parent="60BEPv2QoQoY74sB4UL9-27" vertex="1">
          <mxGeometry x="360" width="60" height="40" as="geometry">
            <mxRectangle width="60" height="40" as="alternateBounds" />
          </mxGeometry>
        </mxCell>
        <mxCell id="60BEPv2QoQoY74sB4UL9-35" value="7" style="shape=partialRectangle;html=1;whiteSpace=wrap;connectable=0;overflow=hidden;fillColor=none;top=0;left=0;bottom=0;right=0;pointerEvents=1;fontSize=17;fontStyle=1;fontColor=#FF0000;" parent="60BEPv2QoQoY74sB4UL9-27" vertex="1">
          <mxGeometry x="420" width="60" height="40" as="geometry">
            <mxRectangle width="60" height="40" as="alternateBounds" />
          </mxGeometry>
        </mxCell>
        <mxCell id="60BEPv2QoQoY74sB4UL9-36" value="8" style="shape=partialRectangle;html=1;whiteSpace=wrap;connectable=0;overflow=hidden;fillColor=none;top=0;left=0;bottom=0;right=0;pointerEvents=1;fontSize=17;fontStyle=1;fontColor=#FF0000;" parent="60BEPv2QoQoY74sB4UL9-27" vertex="1">
          <mxGeometry x="480" width="60" height="40" as="geometry">
            <mxRectangle width="60" height="40" as="alternateBounds" />
          </mxGeometry>
        </mxCell>
        <mxCell id="60BEPv2QoQoY74sB4UL9-37" value="9" style="shape=partialRectangle;html=1;whiteSpace=wrap;connectable=0;overflow=hidden;fillColor=none;top=0;left=0;bottom=0;right=0;pointerEvents=1;fontSize=17;fontStyle=1;fontColor=#FF0000;" parent="60BEPv2QoQoY74sB4UL9-27" vertex="1">
          <mxGeometry x="540" width="60" height="40" as="geometry">
            <mxRectangle width="60" height="40" as="alternateBounds" />
          </mxGeometry>
        </mxCell>
        <mxCell id="60BEPv2QoQoY74sB4UL9-38" value="" style="shape=tableRow;horizontal=0;startSize=0;swimlaneHead=0;swimlaneBody=0;top=0;left=0;bottom=0;right=0;collapsible=0;dropTarget=0;fillColor=none;points=[[0,0.5],[1,0.5]];portConstraint=eastwest;fontSize=17;" parent="60BEPv2QoQoY74sB4UL9-26" vertex="1">
          <mxGeometry y="40" width="600" height="40" as="geometry" />
        </mxCell>
        <mxCell id="60BEPv2QoQoY74sB4UL9-39" value="I1" style="shape=partialRectangle;html=1;whiteSpace=wrap;connectable=0;overflow=hidden;fillColor=none;top=0;left=0;bottom=0;right=0;pointerEvents=1;fontSize=17;fontStyle=1;fontColor=#0000FF;" parent="60BEPv2QoQoY74sB4UL9-38" vertex="1">
          <mxGeometry width="60" height="40" as="geometry">
            <mxRectangle width="60" height="40" as="alternateBounds" />
          </mxGeometry>
        </mxCell>
        <mxCell id="60BEPv2QoQoY74sB4UL9-40" value="IF" style="shape=partialRectangle;html=1;whiteSpace=wrap;connectable=0;overflow=hidden;fillColor=none;top=0;left=0;bottom=0;right=0;pointerEvents=1;fontSize=17;dashed=1;strokeWidth=2;opacity=0;" parent="60BEPv2QoQoY74sB4UL9-38" vertex="1">
          <mxGeometry x="60" width="60" height="40" as="geometry">
            <mxRectangle width="60" height="40" as="alternateBounds" />
          </mxGeometry>
        </mxCell>
        <mxCell id="60BEPv2QoQoY74sB4UL9-41" value="ID" style="shape=partialRectangle;html=1;whiteSpace=wrap;connectable=0;overflow=hidden;fillColor=none;top=0;left=0;bottom=0;right=0;pointerEvents=1;fontSize=17;dashed=1;strokeWidth=2;opacity=0;" parent="60BEPv2QoQoY74sB4UL9-38" vertex="1">
          <mxGeometry x="120" width="60" height="40" as="geometry">
            <mxRectangle width="60" height="40" as="alternateBounds" />
          </mxGeometry>
        </mxCell>
        <mxCell id="60BEPv2QoQoY74sB4UL9-42" value="EX" style="shape=partialRectangle;html=1;whiteSpace=wrap;connectable=0;overflow=hidden;fillColor=none;top=0;left=0;bottom=0;right=0;pointerEvents=1;fontSize=17;dashed=1;strokeWidth=2;opacity=0;" parent="60BEPv2QoQoY74sB4UL9-38" vertex="1">
          <mxGeometry x="180" width="60" height="40" as="geometry">
            <mxRectangle width="60" height="40" as="alternateBounds" />
          </mxGeometry>
        </mxCell>
        <mxCell id="60BEPv2QoQoY74sB4UL9-43" value="MEM" style="shape=partialRectangle;html=1;whiteSpace=wrap;connectable=0;overflow=hidden;fillColor=none;top=0;left=0;bottom=0;right=0;pointerEvents=1;fontSize=17;dashed=1;strokeWidth=2;opacity=0;" parent="60BEPv2QoQoY74sB4UL9-38" vertex="1">
          <mxGeometry x="240" width="60" height="40" as="geometry">
            <mxRectangle width="60" height="40" as="alternateBounds" />
          </mxGeometry>
        </mxCell>
        <mxCell id="60BEPv2QoQoY74sB4UL9-44" value="" style="shape=partialRectangle;html=1;whiteSpace=wrap;connectable=0;overflow=hidden;fillColor=none;top=0;left=0;bottom=0;right=0;pointerEvents=1;fontSize=17;dashed=1;strokeWidth=2;opacity=0;" parent="60BEPv2QoQoY74sB4UL9-38" vertex="1">
          <mxGeometry x="300" width="60" height="40" as="geometry">
            <mxRectangle width="60" height="40" as="alternateBounds" />
          </mxGeometry>
        </mxCell>
        <mxCell id="60BEPv2QoQoY74sB4UL9-45" value="" style="shape=partialRectangle;html=1;whiteSpace=wrap;connectable=0;overflow=hidden;fillColor=none;top=0;left=0;bottom=0;right=0;pointerEvents=1;fontSize=17;dashed=1;strokeWidth=2;opacity=0;" parent="60BEPv2QoQoY74sB4UL9-38" vertex="1">
          <mxGeometry x="360" width="60" height="40" as="geometry">
            <mxRectangle width="60" height="40" as="alternateBounds" />
          </mxGeometry>
        </mxCell>
        <mxCell id="60BEPv2QoQoY74sB4UL9-46" value="" style="shape=partialRectangle;html=1;whiteSpace=wrap;connectable=0;overflow=hidden;fillColor=none;top=0;left=0;bottom=0;right=0;pointerEvents=1;fontSize=17;dashed=1;strokeWidth=2;opacity=0;" parent="60BEPv2QoQoY74sB4UL9-38" vertex="1">
          <mxGeometry x="420" width="60" height="40" as="geometry">
            <mxRectangle width="60" height="40" as="alternateBounds" />
          </mxGeometry>
        </mxCell>
        <mxCell id="60BEPv2QoQoY74sB4UL9-47" value="" style="shape=partialRectangle;html=1;whiteSpace=wrap;connectable=0;overflow=hidden;fillColor=none;top=0;left=0;bottom=0;right=0;pointerEvents=1;fontSize=17;dashed=1;strokeWidth=2;opacity=0;" parent="60BEPv2QoQoY74sB4UL9-38" vertex="1">
          <mxGeometry x="480" width="60" height="40" as="geometry">
            <mxRectangle width="60" height="40" as="alternateBounds" />
          </mxGeometry>
        </mxCell>
        <mxCell id="60BEPv2QoQoY74sB4UL9-48" value="" style="shape=partialRectangle;html=1;whiteSpace=wrap;connectable=0;overflow=hidden;fillColor=none;top=0;left=0;bottom=0;right=0;pointerEvents=1;fontSize=17;dashed=1;strokeWidth=2;opacity=0;" parent="60BEPv2QoQoY74sB4UL9-38" vertex="1">
          <mxGeometry x="540" width="60" height="40" as="geometry">
            <mxRectangle width="60" height="40" as="alternateBounds" />
          </mxGeometry>
        </mxCell>
        <mxCell id="60BEPv2QoQoY74sB4UL9-49" value="" style="shape=tableRow;horizontal=0;startSize=0;swimlaneHead=0;swimlaneBody=0;top=0;left=0;bottom=0;right=0;collapsible=0;dropTarget=0;fillColor=none;points=[[0,0.5],[1,0.5]];portConstraint=eastwest;fontSize=17;" parent="60BEPv2QoQoY74sB4UL9-26" vertex="1">
          <mxGeometry y="80" width="600" height="20" as="geometry" />
        </mxCell>
        <mxCell id="60BEPv2QoQoY74sB4UL9-50" value="I2" style="shape=partialRectangle;html=1;whiteSpace=wrap;connectable=0;overflow=hidden;fillColor=none;top=0;left=0;bottom=0;right=0;pointerEvents=1;fontSize=17;fontStyle=1;fontColor=#0000FF;" parent="60BEPv2QoQoY74sB4UL9-49" vertex="1">
          <mxGeometry width="60" height="20" as="geometry">
            <mxRectangle width="60" height="20" as="alternateBounds" />
          </mxGeometry>
        </mxCell>
        <mxCell id="60BEPv2QoQoY74sB4UL9-51" value="" style="shape=partialRectangle;html=1;whiteSpace=wrap;connectable=0;overflow=hidden;fillColor=none;top=0;left=0;bottom=0;right=0;pointerEvents=1;fontSize=17;dashed=1;strokeWidth=2;opacity=0;" parent="60BEPv2QoQoY74sB4UL9-49" vertex="1">
          <mxGeometry x="60" width="60" height="20" as="geometry">
            <mxRectangle width="60" height="20" as="alternateBounds" />
          </mxGeometry>
        </mxCell>
        <mxCell id="60BEPv2QoQoY74sB4UL9-52" value="IF" style="shape=partialRectangle;html=1;whiteSpace=wrap;connectable=0;overflow=hidden;fillColor=none;top=0;left=0;bottom=0;right=0;pointerEvents=1;fontSize=17;dashed=1;strokeWidth=2;opacity=0;" parent="60BEPv2QoQoY74sB4UL9-49" vertex="1">
          <mxGeometry x="120" width="60" height="20" as="geometry">
            <mxRectangle width="60" height="20" as="alternateBounds" />
          </mxGeometry>
        </mxCell>
        <mxCell id="60BEPv2QoQoY74sB4UL9-53" value="ID" style="shape=partialRectangle;html=1;whiteSpace=wrap;connectable=0;overflow=hidden;fillColor=none;top=0;left=0;bottom=0;right=0;pointerEvents=1;fontSize=17;dashed=1;strokeWidth=2;opacity=0;" parent="60BEPv2QoQoY74sB4UL9-49" vertex="1">
          <mxGeometry x="180" width="60" height="20" as="geometry">
            <mxRectangle width="60" height="20" as="alternateBounds" />
          </mxGeometry>
        </mxCell>
        <mxCell id="60BEPv2QoQoY74sB4UL9-54" value="EX" style="shape=partialRectangle;html=1;whiteSpace=wrap;connectable=0;overflow=hidden;fillColor=none;top=0;left=0;bottom=0;right=0;pointerEvents=1;fontSize=17;dashed=1;strokeWidth=2;opacity=0;" parent="60BEPv2QoQoY74sB4UL9-49" vertex="1">
          <mxGeometry x="240" width="60" height="20" as="geometry">
            <mxRectangle width="60" height="20" as="alternateBounds" />
          </mxGeometry>
        </mxCell>
        <mxCell id="60BEPv2QoQoY74sB4UL9-55" value="MEM" style="shape=partialRectangle;html=1;whiteSpace=wrap;connectable=0;overflow=hidden;fillColor=none;top=0;left=0;bottom=0;right=0;pointerEvents=1;fontSize=17;dashed=1;strokeWidth=2;opacity=0;" parent="60BEPv2QoQoY74sB4UL9-49" vertex="1">
          <mxGeometry x="300" width="60" height="20" as="geometry">
            <mxRectangle width="60" height="20" as="alternateBounds" />
          </mxGeometry>
        </mxCell>
        <mxCell id="60BEPv2QoQoY74sB4UL9-56" value="" style="shape=partialRectangle;html=1;whiteSpace=wrap;connectable=0;overflow=hidden;fillColor=none;top=0;left=0;bottom=0;right=0;pointerEvents=1;fontSize=17;dashed=1;strokeWidth=2;opacity=0;" parent="60BEPv2QoQoY74sB4UL9-49" vertex="1">
          <mxGeometry x="360" width="60" height="20" as="geometry">
            <mxRectangle width="60" height="20" as="alternateBounds" />
          </mxGeometry>
        </mxCell>
        <mxCell id="60BEPv2QoQoY74sB4UL9-57" value="" style="shape=partialRectangle;html=1;whiteSpace=wrap;connectable=0;overflow=hidden;fillColor=none;top=0;left=0;bottom=0;right=0;pointerEvents=1;fontSize=17;dashed=1;strokeWidth=2;opacity=0;" parent="60BEPv2QoQoY74sB4UL9-49" vertex="1">
          <mxGeometry x="420" width="60" height="20" as="geometry">
            <mxRectangle width="60" height="20" as="alternateBounds" />
          </mxGeometry>
        </mxCell>
        <mxCell id="60BEPv2QoQoY74sB4UL9-58" value="" style="shape=partialRectangle;html=1;whiteSpace=wrap;connectable=0;overflow=hidden;fillColor=none;top=0;left=0;bottom=0;right=0;pointerEvents=1;fontSize=17;dashed=1;strokeWidth=2;opacity=0;" parent="60BEPv2QoQoY74sB4UL9-49" vertex="1">
          <mxGeometry x="480" width="60" height="20" as="geometry">
            <mxRectangle width="60" height="20" as="alternateBounds" />
          </mxGeometry>
        </mxCell>
        <mxCell id="60BEPv2QoQoY74sB4UL9-59" value="" style="shape=partialRectangle;html=1;whiteSpace=wrap;connectable=0;overflow=hidden;fillColor=none;top=0;left=0;bottom=0;right=0;pointerEvents=1;fontSize=17;dashed=1;strokeWidth=2;opacity=0;" parent="60BEPv2QoQoY74sB4UL9-49" vertex="1">
          <mxGeometry x="540" width="60" height="20" as="geometry">
            <mxRectangle width="60" height="20" as="alternateBounds" />
          </mxGeometry>
        </mxCell>
        <mxCell id="60BEPv2QoQoY74sB4UL9-82" value="" style="shape=tableRow;horizontal=0;startSize=0;swimlaneHead=0;swimlaneBody=0;top=0;left=0;bottom=0;right=0;collapsible=0;dropTarget=0;fillColor=none;points=[[0,0.5],[1,0.5]];portConstraint=eastwest;fontSize=17;" parent="60BEPv2QoQoY74sB4UL9-26" vertex="1">
          <mxGeometry y="100" width="600" height="40" as="geometry" />
        </mxCell>
        <mxCell id="60BEPv2QoQoY74sB4UL9-83" value="I6" style="shape=partialRectangle;html=1;whiteSpace=wrap;connectable=0;overflow=hidden;fillColor=none;top=0;left=0;bottom=0;right=0;pointerEvents=1;fontSize=17;fontStyle=1;fontColor=#0000FF;" parent="60BEPv2QoQoY74sB4UL9-82" vertex="1">
          <mxGeometry width="60" height="40" as="geometry">
            <mxRectangle width="60" height="40" as="alternateBounds" />
          </mxGeometry>
        </mxCell>
        <mxCell id="60BEPv2QoQoY74sB4UL9-84" value="" style="shape=partialRectangle;html=1;whiteSpace=wrap;connectable=0;overflow=hidden;fillColor=none;top=0;left=0;bottom=0;right=0;pointerEvents=1;fontSize=17;dashed=1;strokeWidth=2;opacity=0;" parent="60BEPv2QoQoY74sB4UL9-82" vertex="1">
          <mxGeometry x="60" width="60" height="40" as="geometry">
            <mxRectangle width="60" height="40" as="alternateBounds" />
          </mxGeometry>
        </mxCell>
        <mxCell id="60BEPv2QoQoY74sB4UL9-85" value="" style="shape=partialRectangle;html=1;whiteSpace=wrap;connectable=0;overflow=hidden;fillColor=none;top=0;left=0;bottom=0;right=0;pointerEvents=1;fontSize=17;dashed=1;strokeWidth=2;opacity=0;" parent="60BEPv2QoQoY74sB4UL9-82" vertex="1">
          <mxGeometry x="120" width="60" height="40" as="geometry">
            <mxRectangle width="60" height="40" as="alternateBounds" />
          </mxGeometry>
        </mxCell>
        <mxCell id="60BEPv2QoQoY74sB4UL9-86" value="" style="shape=partialRectangle;html=1;whiteSpace=wrap;connectable=0;overflow=hidden;fillColor=none;top=0;left=0;bottom=0;right=0;pointerEvents=1;fontSize=17;dashed=1;strokeWidth=2;opacity=0;" parent="60BEPv2QoQoY74sB4UL9-82" vertex="1">
          <mxGeometry x="180" width="60" height="40" as="geometry">
            <mxRectangle width="60" height="40" as="alternateBounds" />
          </mxGeometry>
        </mxCell>
        <mxCell id="60BEPv2QoQoY74sB4UL9-87" value="" style="shape=partialRectangle;html=1;whiteSpace=wrap;connectable=0;overflow=hidden;fillColor=none;top=0;left=0;bottom=0;right=0;pointerEvents=1;fontSize=17;dashed=1;strokeWidth=2;opacity=0;" parent="60BEPv2QoQoY74sB4UL9-82" vertex="1">
          <mxGeometry x="240" width="60" height="40" as="geometry">
            <mxRectangle width="60" height="40" as="alternateBounds" />
          </mxGeometry>
        </mxCell>
        <mxCell id="60BEPv2QoQoY74sB4UL9-88" value="" style="shape=partialRectangle;html=1;whiteSpace=wrap;connectable=0;overflow=hidden;fillColor=none;top=0;left=0;bottom=0;right=0;pointerEvents=1;fontSize=17;dashed=1;strokeWidth=2;opacity=0;" parent="60BEPv2QoQoY74sB4UL9-82" vertex="1">
          <mxGeometry x="300" width="60" height="40" as="geometry">
            <mxRectangle width="60" height="40" as="alternateBounds" />
          </mxGeometry>
        </mxCell>
        <mxCell id="60BEPv2QoQoY74sB4UL9-89" value="IF" style="shape=partialRectangle;html=1;whiteSpace=wrap;connectable=0;overflow=hidden;fillColor=none;top=0;left=0;bottom=0;right=0;pointerEvents=1;fontSize=17;dashed=1;strokeWidth=2;opacity=0;" parent="60BEPv2QoQoY74sB4UL9-82" vertex="1">
          <mxGeometry x="360" width="60" height="40" as="geometry">
            <mxRectangle width="60" height="40" as="alternateBounds" />
          </mxGeometry>
        </mxCell>
        <mxCell id="60BEPv2QoQoY74sB4UL9-90" value="ID" style="shape=partialRectangle;html=1;whiteSpace=wrap;connectable=0;overflow=hidden;fillColor=none;top=0;left=0;bottom=0;right=0;pointerEvents=1;fontSize=17;dashed=1;strokeWidth=2;opacity=0;" parent="60BEPv2QoQoY74sB4UL9-82" vertex="1">
          <mxGeometry x="420" width="60" height="40" as="geometry">
            <mxRectangle width="60" height="40" as="alternateBounds" />
          </mxGeometry>
        </mxCell>
        <mxCell id="60BEPv2QoQoY74sB4UL9-91" value="EX" style="shape=partialRectangle;html=1;whiteSpace=wrap;connectable=0;overflow=hidden;fillColor=none;top=0;left=0;bottom=0;right=0;pointerEvents=1;fontSize=17;dashed=1;strokeWidth=2;opacity=0;" parent="60BEPv2QoQoY74sB4UL9-82" vertex="1">
          <mxGeometry x="480" width="60" height="40" as="geometry">
            <mxRectangle width="60" height="40" as="alternateBounds" />
          </mxGeometry>
        </mxCell>
        <mxCell id="60BEPv2QoQoY74sB4UL9-92" value="MEM" style="shape=partialRectangle;html=1;whiteSpace=wrap;connectable=0;overflow=hidden;fillColor=none;top=0;left=0;bottom=0;right=0;pointerEvents=1;fontSize=17;dashed=1;strokeWidth=2;opacity=0;" parent="60BEPv2QoQoY74sB4UL9-82" vertex="1">
          <mxGeometry x="540" width="60" height="40" as="geometry">
            <mxRectangle width="60" height="40" as="alternateBounds" />
          </mxGeometry>
        </mxCell>
        <mxCell id="60BEPv2QoQoY74sB4UL9-93" style="shape=tableRow;horizontal=0;startSize=0;swimlaneHead=0;swimlaneBody=0;top=0;left=0;bottom=0;right=0;collapsible=0;dropTarget=0;fillColor=none;points=[[0,0.5],[1,0.5]];portConstraint=eastwest;fontSize=17;" parent="60BEPv2QoQoY74sB4UL9-26" vertex="1">
          <mxGeometry y="140" width="600" height="40" as="geometry" />
        </mxCell>
        <mxCell id="60BEPv2QoQoY74sB4UL9-94" value="I5" style="shape=partialRectangle;html=1;whiteSpace=wrap;connectable=0;overflow=hidden;fillColor=none;top=0;left=0;bottom=0;right=0;pointerEvents=1;fontSize=17;fontStyle=1;fontColor=#0000FF;" parent="60BEPv2QoQoY74sB4UL9-93" vertex="1">
          <mxGeometry width="60" height="40" as="geometry">
            <mxRectangle width="60" height="40" as="alternateBounds" />
          </mxGeometry>
        </mxCell>
        <mxCell id="60BEPv2QoQoY74sB4UL9-95" style="shape=partialRectangle;html=1;whiteSpace=wrap;connectable=0;overflow=hidden;fillColor=none;top=0;left=0;bottom=0;right=0;pointerEvents=1;fontSize=17;dashed=1;strokeWidth=2;opacity=0;" parent="60BEPv2QoQoY74sB4UL9-93" vertex="1">
          <mxGeometry x="60" width="60" height="40" as="geometry">
            <mxRectangle width="60" height="40" as="alternateBounds" />
          </mxGeometry>
        </mxCell>
        <mxCell id="60BEPv2QoQoY74sB4UL9-96" style="shape=partialRectangle;html=1;whiteSpace=wrap;connectable=0;overflow=hidden;fillColor=none;top=0;left=0;bottom=0;right=0;pointerEvents=1;fontSize=17;dashed=1;strokeWidth=2;opacity=0;" parent="60BEPv2QoQoY74sB4UL9-93" vertex="1">
          <mxGeometry x="120" width="60" height="40" as="geometry">
            <mxRectangle width="60" height="40" as="alternateBounds" />
          </mxGeometry>
        </mxCell>
        <mxCell id="60BEPv2QoQoY74sB4UL9-97" style="shape=partialRectangle;html=1;whiteSpace=wrap;connectable=0;overflow=hidden;fillColor=none;top=0;left=0;bottom=0;right=0;pointerEvents=1;fontSize=17;dashed=1;strokeWidth=2;opacity=0;" parent="60BEPv2QoQoY74sB4UL9-93" vertex="1">
          <mxGeometry x="180" width="60" height="40" as="geometry">
            <mxRectangle width="60" height="40" as="alternateBounds" />
          </mxGeometry>
        </mxCell>
        <mxCell id="60BEPv2QoQoY74sB4UL9-98" style="shape=partialRectangle;html=1;whiteSpace=wrap;connectable=0;overflow=hidden;fillColor=none;top=0;left=0;bottom=0;right=0;pointerEvents=1;fontSize=17;dashed=1;strokeWidth=2;opacity=0;" parent="60BEPv2QoQoY74sB4UL9-93" vertex="1">
          <mxGeometry x="240" width="60" height="40" as="geometry">
            <mxRectangle width="60" height="40" as="alternateBounds" />
          </mxGeometry>
        </mxCell>
        <mxCell id="60BEPv2QoQoY74sB4UL9-99" value="IF" style="shape=partialRectangle;html=1;whiteSpace=wrap;connectable=0;overflow=hidden;fillColor=none;top=0;left=0;bottom=0;right=0;pointerEvents=1;fontSize=17;dashed=1;strokeWidth=2;opacity=0;" parent="60BEPv2QoQoY74sB4UL9-93" vertex="1">
          <mxGeometry x="300" width="60" height="40" as="geometry">
            <mxRectangle width="60" height="40" as="alternateBounds" />
          </mxGeometry>
        </mxCell>
        <mxCell id="60BEPv2QoQoY74sB4UL9-100" value="ID" style="shape=partialRectangle;html=1;whiteSpace=wrap;connectable=0;overflow=hidden;fillColor=none;top=0;left=0;bottom=0;right=0;pointerEvents=1;fontSize=17;dashed=1;strokeWidth=2;opacity=0;" parent="60BEPv2QoQoY74sB4UL9-93" vertex="1">
          <mxGeometry x="360" width="60" height="40" as="geometry">
            <mxRectangle width="60" height="40" as="alternateBounds" />
          </mxGeometry>
        </mxCell>
        <mxCell id="60BEPv2QoQoY74sB4UL9-101" value="EX" style="shape=partialRectangle;html=1;whiteSpace=wrap;connectable=0;overflow=hidden;fillColor=none;top=0;left=0;bottom=0;right=0;pointerEvents=1;fontSize=17;dashed=1;strokeWidth=2;opacity=0;" parent="60BEPv2QoQoY74sB4UL9-93" vertex="1">
          <mxGeometry x="420" width="60" height="40" as="geometry">
            <mxRectangle width="60" height="40" as="alternateBounds" />
          </mxGeometry>
        </mxCell>
        <mxCell id="60BEPv2QoQoY74sB4UL9-102" value="MEM" style="shape=partialRectangle;html=1;whiteSpace=wrap;connectable=0;overflow=hidden;fillColor=none;top=0;left=0;bottom=0;right=0;pointerEvents=1;fontSize=17;dashed=1;strokeWidth=2;opacity=0;" parent="60BEPv2QoQoY74sB4UL9-93" vertex="1">
          <mxGeometry x="480" width="60" height="40" as="geometry">
            <mxRectangle width="60" height="40" as="alternateBounds" />
          </mxGeometry>
        </mxCell>
        <mxCell id="60BEPv2QoQoY74sB4UL9-103" style="shape=partialRectangle;html=1;whiteSpace=wrap;connectable=0;overflow=hidden;fillColor=none;top=0;left=0;bottom=0;right=0;pointerEvents=1;fontSize=17;dashed=1;strokeWidth=2;opacity=0;" parent="60BEPv2QoQoY74sB4UL9-93" vertex="1">
          <mxGeometry x="540" width="60" height="40" as="geometry">
            <mxRectangle width="60" height="40" as="alternateBounds" />
          </mxGeometry>
        </mxCell>
        <mxCell id="60BEPv2QoQoY74sB4UL9-71" value="" style="shape=tableRow;horizontal=0;startSize=0;swimlaneHead=0;swimlaneBody=0;top=0;left=0;bottom=0;right=0;collapsible=0;dropTarget=0;fillColor=none;points=[[0,0.5],[1,0.5]];portConstraint=eastwest;fontSize=17;" parent="60BEPv2QoQoY74sB4UL9-26" vertex="1">
          <mxGeometry y="180" width="600" height="40" as="geometry" />
        </mxCell>
        <mxCell id="60BEPv2QoQoY74sB4UL9-72" value="I4" style="shape=partialRectangle;html=1;whiteSpace=wrap;connectable=0;overflow=hidden;fillColor=none;top=0;left=0;bottom=0;right=0;pointerEvents=1;fontSize=17;fontStyle=1;fontColor=#0000FF;" parent="60BEPv2QoQoY74sB4UL9-71" vertex="1">
          <mxGeometry width="60" height="40" as="geometry">
            <mxRectangle width="60" height="40" as="alternateBounds" />
          </mxGeometry>
        </mxCell>
        <mxCell id="60BEPv2QoQoY74sB4UL9-73" value="" style="shape=partialRectangle;html=1;whiteSpace=wrap;connectable=0;overflow=hidden;fillColor=none;top=0;left=0;bottom=0;right=0;pointerEvents=1;fontSize=17;dashed=1;strokeWidth=2;opacity=0;" parent="60BEPv2QoQoY74sB4UL9-71" vertex="1">
          <mxGeometry x="60" width="60" height="40" as="geometry">
            <mxRectangle width="60" height="40" as="alternateBounds" />
          </mxGeometry>
        </mxCell>
        <mxCell id="60BEPv2QoQoY74sB4UL9-74" value="" style="shape=partialRectangle;html=1;whiteSpace=wrap;connectable=0;overflow=hidden;fillColor=none;top=0;left=0;bottom=0;right=0;pointerEvents=1;fontSize=17;dashed=1;strokeWidth=2;opacity=0;" parent="60BEPv2QoQoY74sB4UL9-71" vertex="1">
          <mxGeometry x="120" width="60" height="40" as="geometry">
            <mxRectangle width="60" height="40" as="alternateBounds" />
          </mxGeometry>
        </mxCell>
        <mxCell id="60BEPv2QoQoY74sB4UL9-75" value="" style="shape=partialRectangle;html=1;whiteSpace=wrap;connectable=0;overflow=hidden;fillColor=none;top=0;left=0;bottom=0;right=0;pointerEvents=1;fontSize=17;dashed=1;strokeWidth=2;opacity=0;" parent="60BEPv2QoQoY74sB4UL9-71" vertex="1">
          <mxGeometry x="180" width="60" height="40" as="geometry">
            <mxRectangle width="60" height="40" as="alternateBounds" />
          </mxGeometry>
        </mxCell>
        <mxCell id="60BEPv2QoQoY74sB4UL9-76" value="IF" style="shape=partialRectangle;html=1;whiteSpace=wrap;connectable=0;overflow=hidden;fillColor=none;top=0;left=0;bottom=0;right=0;pointerEvents=1;fontSize=17;dashed=1;strokeWidth=2;opacity=0;" parent="60BEPv2QoQoY74sB4UL9-71" vertex="1">
          <mxGeometry x="240" width="60" height="40" as="geometry">
            <mxRectangle width="60" height="40" as="alternateBounds" />
          </mxGeometry>
        </mxCell>
        <mxCell id="60BEPv2QoQoY74sB4UL9-77" value="ID" style="shape=partialRectangle;html=1;whiteSpace=wrap;connectable=0;overflow=hidden;fillColor=none;top=0;left=0;bottom=0;right=0;pointerEvents=1;fontSize=17;dashed=1;strokeWidth=2;opacity=0;" parent="60BEPv2QoQoY74sB4UL9-71" vertex="1">
          <mxGeometry x="300" width="60" height="40" as="geometry">
            <mxRectangle width="60" height="40" as="alternateBounds" />
          </mxGeometry>
        </mxCell>
        <mxCell id="60BEPv2QoQoY74sB4UL9-78" value="EX" style="shape=partialRectangle;html=1;whiteSpace=wrap;connectable=0;overflow=hidden;fillColor=none;top=0;left=0;bottom=0;right=0;pointerEvents=1;fontSize=17;dashed=1;strokeWidth=2;opacity=0;" parent="60BEPv2QoQoY74sB4UL9-71" vertex="1">
          <mxGeometry x="360" width="60" height="40" as="geometry">
            <mxRectangle width="60" height="40" as="alternateBounds" />
          </mxGeometry>
        </mxCell>
        <mxCell id="60BEPv2QoQoY74sB4UL9-79" value="MEM" style="shape=partialRectangle;html=1;whiteSpace=wrap;connectable=0;overflow=hidden;fillColor=none;top=0;left=0;bottom=0;right=0;pointerEvents=1;fontSize=17;dashed=1;strokeWidth=2;opacity=0;" parent="60BEPv2QoQoY74sB4UL9-71" vertex="1">
          <mxGeometry x="420" width="60" height="40" as="geometry">
            <mxRectangle width="60" height="40" as="alternateBounds" />
          </mxGeometry>
        </mxCell>
        <mxCell id="60BEPv2QoQoY74sB4UL9-80" value="" style="shape=partialRectangle;html=1;whiteSpace=wrap;connectable=0;overflow=hidden;fillColor=none;top=0;left=0;bottom=0;right=0;pointerEvents=1;fontSize=17;dashed=1;strokeWidth=2;opacity=0;" parent="60BEPv2QoQoY74sB4UL9-71" vertex="1">
          <mxGeometry x="480" width="60" height="40" as="geometry">
            <mxRectangle width="60" height="40" as="alternateBounds" />
          </mxGeometry>
        </mxCell>
        <mxCell id="60BEPv2QoQoY74sB4UL9-81" value="" style="shape=partialRectangle;html=1;whiteSpace=wrap;connectable=0;overflow=hidden;fillColor=none;top=0;left=0;bottom=0;right=0;pointerEvents=1;fontSize=17;dashed=1;strokeWidth=2;opacity=0;" parent="60BEPv2QoQoY74sB4UL9-71" vertex="1">
          <mxGeometry x="540" width="60" height="40" as="geometry">
            <mxRectangle width="60" height="40" as="alternateBounds" />
          </mxGeometry>
        </mxCell>
        <mxCell id="60BEPv2QoQoY74sB4UL9-60" value="" style="shape=tableRow;horizontal=0;startSize=0;swimlaneHead=0;swimlaneBody=0;top=0;left=0;bottom=0;right=0;collapsible=0;dropTarget=0;fillColor=none;points=[[0,0.5],[1,0.5]];portConstraint=eastwest;fontSize=17;" parent="60BEPv2QoQoY74sB4UL9-26" vertex="1">
          <mxGeometry y="220" width="600" height="40" as="geometry" />
        </mxCell>
        <mxCell id="60BEPv2QoQoY74sB4UL9-61" value="I3" style="shape=partialRectangle;html=1;whiteSpace=wrap;connectable=0;overflow=hidden;fillColor=none;top=0;left=0;bottom=0;right=0;pointerEvents=1;fontSize=17;fontStyle=1;fontColor=#0000FF;" parent="60BEPv2QoQoY74sB4UL9-60" vertex="1">
          <mxGeometry width="60" height="40" as="geometry">
            <mxRectangle width="60" height="40" as="alternateBounds" />
          </mxGeometry>
        </mxCell>
        <mxCell id="60BEPv2QoQoY74sB4UL9-62" value="" style="shape=partialRectangle;html=1;whiteSpace=wrap;connectable=0;overflow=hidden;fillColor=none;top=0;left=0;bottom=0;right=0;pointerEvents=1;fontSize=17;dashed=1;strokeWidth=2;opacity=0;" parent="60BEPv2QoQoY74sB4UL9-60" vertex="1">
          <mxGeometry x="60" width="60" height="40" as="geometry">
            <mxRectangle width="60" height="40" as="alternateBounds" />
          </mxGeometry>
        </mxCell>
        <mxCell id="60BEPv2QoQoY74sB4UL9-63" value="" style="shape=partialRectangle;html=1;whiteSpace=wrap;connectable=0;overflow=hidden;fillColor=none;top=0;left=0;bottom=0;right=0;pointerEvents=1;fontSize=17;dashed=1;strokeWidth=2;opacity=0;" parent="60BEPv2QoQoY74sB4UL9-60" vertex="1">
          <mxGeometry x="120" width="60" height="40" as="geometry">
            <mxRectangle width="60" height="40" as="alternateBounds" />
          </mxGeometry>
        </mxCell>
        <mxCell id="60BEPv2QoQoY74sB4UL9-64" value="IF" style="shape=partialRectangle;html=1;whiteSpace=wrap;connectable=0;overflow=hidden;fillColor=none;top=0;left=0;bottom=0;right=0;pointerEvents=1;fontSize=17;dashed=1;strokeWidth=2;opacity=0;" parent="60BEPv2QoQoY74sB4UL9-60" vertex="1">
          <mxGeometry x="180" width="60" height="40" as="geometry">
            <mxRectangle width="60" height="40" as="alternateBounds" />
          </mxGeometry>
        </mxCell>
        <mxCell id="60BEPv2QoQoY74sB4UL9-65" value="ID" style="shape=partialRectangle;html=1;whiteSpace=wrap;connectable=0;overflow=hidden;fillColor=none;top=0;left=0;bottom=0;right=0;pointerEvents=1;fontSize=17;dashed=1;strokeWidth=2;opacity=0;" parent="60BEPv2QoQoY74sB4UL9-60" vertex="1">
          <mxGeometry x="240" width="60" height="40" as="geometry">
            <mxRectangle width="60" height="40" as="alternateBounds" />
          </mxGeometry>
        </mxCell>
        <mxCell id="60BEPv2QoQoY74sB4UL9-66" value="EX" style="shape=partialRectangle;html=1;whiteSpace=wrap;connectable=0;overflow=hidden;fillColor=none;top=0;left=0;bottom=0;right=0;pointerEvents=1;fontSize=17;dashed=1;strokeWidth=2;opacity=0;" parent="60BEPv2QoQoY74sB4UL9-60" vertex="1">
          <mxGeometry x="300" width="60" height="40" as="geometry">
            <mxRectangle width="60" height="40" as="alternateBounds" />
          </mxGeometry>
        </mxCell>
        <mxCell id="60BEPv2QoQoY74sB4UL9-67" value="MEM" style="shape=partialRectangle;html=1;whiteSpace=wrap;connectable=0;overflow=hidden;fillColor=none;top=0;left=0;bottom=0;right=0;pointerEvents=1;fontSize=17;dashed=1;strokeWidth=2;opacity=0;" parent="60BEPv2QoQoY74sB4UL9-60" vertex="1">
          <mxGeometry x="360" width="60" height="40" as="geometry">
            <mxRectangle width="60" height="40" as="alternateBounds" />
          </mxGeometry>
        </mxCell>
        <mxCell id="60BEPv2QoQoY74sB4UL9-68" value="" style="shape=partialRectangle;html=1;whiteSpace=wrap;connectable=0;overflow=hidden;fillColor=none;top=0;left=0;bottom=0;right=0;pointerEvents=1;fontSize=17;dashed=1;strokeWidth=2;opacity=0;" parent="60BEPv2QoQoY74sB4UL9-60" vertex="1">
          <mxGeometry x="420" width="60" height="40" as="geometry">
            <mxRectangle width="60" height="40" as="alternateBounds" />
          </mxGeometry>
        </mxCell>
        <mxCell id="60BEPv2QoQoY74sB4UL9-69" value="" style="shape=partialRectangle;html=1;whiteSpace=wrap;connectable=0;overflow=hidden;fillColor=none;top=0;left=0;bottom=0;right=0;pointerEvents=1;fontSize=17;dashed=1;strokeWidth=2;opacity=0;" parent="60BEPv2QoQoY74sB4UL9-60" vertex="1">
          <mxGeometry x="480" width="60" height="40" as="geometry">
            <mxRectangle width="60" height="40" as="alternateBounds" />
          </mxGeometry>
        </mxCell>
        <mxCell id="60BEPv2QoQoY74sB4UL9-70" value="" style="shape=partialRectangle;html=1;whiteSpace=wrap;connectable=0;overflow=hidden;fillColor=none;top=0;left=0;bottom=0;right=0;pointerEvents=1;fontSize=17;dashed=1;strokeWidth=2;opacity=80;" parent="60BEPv2QoQoY74sB4UL9-60" vertex="1">
          <mxGeometry x="540" width="60" height="40" as="geometry">
            <mxRectangle width="60" height="40" as="alternateBounds" />
          </mxGeometry>
        </mxCell>
        <mxCell id="60BEPv2QoQoY74sB4UL9-105" value="" style="shape=table;startSize=0;container=1;collapsible=0;childLayout=tableLayout;dashed=1;strokeWidth=2;fontSize=17;fontColor=#0000FF;opacity=80;fontStyle=1" parent="1" vertex="1">
          <mxGeometry x="-1340" y="344" width="250" height="220" as="geometry" />
        </mxCell>
        <mxCell id="60BEPv2QoQoY74sB4UL9-106" value="" style="shape=tableRow;horizontal=0;startSize=0;swimlaneHead=0;swimlaneBody=0;top=0;left=0;bottom=0;right=0;collapsible=0;dropTarget=0;fillColor=none;points=[[0,0.5],[1,0.5]];portConstraint=eastwest;dashed=1;strokeWidth=2;fontSize=17;fontColor=#0000FF;opacity=80;fontStyle=1" parent="60BEPv2QoQoY74sB4UL9-105" vertex="1">
          <mxGeometry width="250" height="40" as="geometry" />
        </mxCell>
        <mxCell id="60BEPv2QoQoY74sB4UL9-107" value="&lt;span style=&quot;font-size: 10px;&quot;&gt;&lt;font&gt;R1: LOAD&amp;nbsp; &amp;nbsp;R0, (A)&amp;nbsp; &amp;nbsp; ; I1&lt;/font&gt;&lt;/span&gt;" style="shape=partialRectangle;html=1;whiteSpace=wrap;connectable=0;overflow=hidden;fillColor=none;top=0;left=0;bottom=0;right=0;pointerEvents=1;dashed=1;strokeWidth=2;fontSize=10;fontColor=#0000FF;opacity=80;fontStyle=1" parent="60BEPv2QoQoY74sB4UL9-106" vertex="1">
          <mxGeometry width="250" height="40" as="geometry">
            <mxRectangle width="250" height="40" as="alternateBounds" />
          </mxGeometry>
        </mxCell>
        <mxCell id="60BEPv2QoQoY74sB4UL9-108" value="" style="shape=tableRow;horizontal=0;startSize=0;swimlaneHead=0;swimlaneBody=0;top=0;left=0;bottom=0;right=0;collapsible=0;dropTarget=0;fillColor=none;points=[[0,0.5],[1,0.5]];portConstraint=eastwest;dashed=1;strokeWidth=2;fontSize=11;fontColor=#0000FF;opacity=80;fontStyle=1" parent="60BEPv2QoQoY74sB4UL9-105" vertex="1">
          <mxGeometry y="40" width="250" height="20" as="geometry" />
        </mxCell>
        <mxCell id="60BEPv2QoQoY74sB4UL9-109" value="&lt;span style=&quot;font-size: 11px;&quot;&gt;R2: ADD&amp;nbsp; &amp;nbsp; R0, R0, #1 ; I2&lt;/span&gt;" style="shape=partialRectangle;html=1;whiteSpace=wrap;connectable=0;overflow=hidden;fillColor=none;top=0;left=0;bottom=0;right=0;pointerEvents=1;dashed=1;strokeWidth=2;fontSize=11;fontColor=#0000FF;opacity=80;fontStyle=1" parent="60BEPv2QoQoY74sB4UL9-108" vertex="1">
          <mxGeometry width="250" height="20" as="geometry">
            <mxRectangle width="250" height="20" as="alternateBounds" />
          </mxGeometry>
        </mxCell>
        <mxCell id="60BEPv2QoQoY74sB4UL9-110" value="" style="shape=tableRow;horizontal=0;startSize=0;swimlaneHead=0;swimlaneBody=0;top=0;left=0;bottom=0;right=0;collapsible=0;dropTarget=0;fillColor=none;points=[[0,0.5],[1,0.5]];portConstraint=eastwest;dashed=1;strokeWidth=2;fontSize=11;fontColor=#0000FF;opacity=80;fontStyle=1" parent="60BEPv2QoQoY74sB4UL9-105" vertex="1">
          <mxGeometry y="60" width="250" height="40" as="geometry" />
        </mxCell>
        <mxCell id="60BEPv2QoQoY74sB4UL9-111" value="&lt;span style=&quot;font-size: 11px;&quot;&gt;&amp;nbsp;R3: STORE&amp;nbsp; (A), R0&amp;nbsp; &amp;nbsp; ; I3&lt;/span&gt;" style="shape=partialRectangle;html=1;whiteSpace=wrap;connectable=0;overflow=hidden;fillColor=none;top=0;left=0;bottom=0;right=0;pointerEvents=1;dashed=1;strokeWidth=2;fontSize=11;fontColor=#0000FF;opacity=80;fontStyle=1" parent="60BEPv2QoQoY74sB4UL9-110" vertex="1">
          <mxGeometry width="250" height="40" as="geometry">
            <mxRectangle width="250" height="40" as="alternateBounds" />
          </mxGeometry>
        </mxCell>
        <mxCell id="60BEPv2QoQoY74sB4UL9-112" value="" style="shape=tableRow;horizontal=0;startSize=0;swimlaneHead=0;swimlaneBody=0;top=0;left=0;bottom=0;right=0;collapsible=0;dropTarget=0;fillColor=none;points=[[0,0.5],[1,0.5]];portConstraint=eastwest;dashed=1;strokeWidth=2;fontSize=11;fontColor=#0000FF;opacity=80;fontStyle=1" parent="60BEPv2QoQoY74sB4UL9-105" vertex="1">
          <mxGeometry y="100" width="250" height="40" as="geometry" />
        </mxCell>
        <mxCell id="60BEPv2QoQoY74sB4UL9-113" value="&lt;span style=&quot;font-size: 11px;&quot;&gt;R4: SUB&amp;nbsp; &amp;nbsp; R1, R1, #1 ; I4&lt;/span&gt;" style="shape=partialRectangle;html=1;whiteSpace=wrap;connectable=0;overflow=hidden;fillColor=none;top=0;left=0;bottom=0;right=0;pointerEvents=1;dashed=1;strokeWidth=2;fontSize=11;fontColor=#0000FF;opacity=80;fontStyle=1" parent="60BEPv2QoQoY74sB4UL9-112" vertex="1">
          <mxGeometry width="250" height="40" as="geometry">
            <mxRectangle width="250" height="40" as="alternateBounds" />
          </mxGeometry>
        </mxCell>
        <mxCell id="60BEPv2QoQoY74sB4UL9-114" value="" style="shape=tableRow;horizontal=0;startSize=0;swimlaneHead=0;swimlaneBody=0;top=0;left=0;bottom=0;right=0;collapsible=0;dropTarget=0;fillColor=none;points=[[0,0.5],[1,0.5]];portConstraint=eastwest;dashed=1;strokeWidth=2;fontSize=11;fontColor=#0000FF;opacity=80;fontStyle=1" parent="60BEPv2QoQoY74sB4UL9-105" vertex="1">
          <mxGeometry y="140" width="250" height="40" as="geometry" />
        </mxCell>
        <mxCell id="60BEPv2QoQoY74sB4UL9-115" value="&lt;span style=&quot;font-size: 11px;&quot;&gt;R5: LOAD&amp;nbsp; &amp;nbsp;R0, (A)&amp;nbsp; &amp;nbsp; ; I5&lt;/span&gt;" style="shape=partialRectangle;html=1;whiteSpace=wrap;connectable=0;overflow=hidden;fillColor=none;top=0;left=0;bottom=0;right=0;pointerEvents=1;dashed=1;strokeWidth=2;fontSize=11;fontColor=#0000FF;opacity=80;fontStyle=1" parent="60BEPv2QoQoY74sB4UL9-114" vertex="1">
          <mxGeometry width="250" height="40" as="geometry">
            <mxRectangle width="250" height="40" as="alternateBounds" />
          </mxGeometry>
        </mxCell>
        <mxCell id="60BEPv2QoQoY74sB4UL9-116" value="" style="shape=tableRow;horizontal=0;startSize=0;swimlaneHead=0;swimlaneBody=0;top=0;left=0;bottom=0;right=0;collapsible=0;dropTarget=0;fillColor=none;points=[[0,0.5],[1,0.5]];portConstraint=eastwest;dashed=1;strokeWidth=2;fontSize=11;fontColor=#0000FF;opacity=80;fontStyle=1" parent="60BEPv2QoQoY74sB4UL9-105" vertex="1">
          <mxGeometry y="180" width="250" height="40" as="geometry" />
        </mxCell>
        <mxCell id="60BEPv2QoQoY74sB4UL9-117" value="&lt;span style=&quot;font-size: 11px;&quot;&gt;R6: ADD&amp;nbsp; &amp;nbsp; R0, R0, #1 ; I6&lt;/span&gt;" style="shape=partialRectangle;html=1;whiteSpace=wrap;connectable=0;overflow=hidden;fillColor=none;top=0;left=0;bottom=0;right=0;pointerEvents=1;dashed=1;strokeWidth=2;fontSize=11;fontColor=#0000FF;opacity=80;fontStyle=1" parent="60BEPv2QoQoY74sB4UL9-116" vertex="1">
          <mxGeometry width="250" height="40" as="geometry">
            <mxRectangle width="250" height="40" as="alternateBounds" />
          </mxGeometry>
        </mxCell>
        <mxCell id="60BEPv2QoQoY74sB4UL9-126" style="edgeStyle=orthogonalEdgeStyle;rounded=0;orthogonalLoop=1;jettySize=auto;html=1;exitX=1;exitY=0.5;exitDx=0;exitDy=0;entryX=0;entryY=0.5;entryDx=0;entryDy=0;fontSize=14;fontColor=#0000FF;fontStyle=1" parent="1" source="60BEPv2QoQoY74sB4UL9-120" target="60BEPv2QoQoY74sB4UL9-121" edge="1">
          <mxGeometry relative="1" as="geometry" />
        </mxCell>
        <mxCell id="60BEPv2QoQoY74sB4UL9-120" value="&lt;span style=&quot;color: rgb(55, 65, 81); font-family: Söhne, ui-sans-serif, system-ui, -apple-system, &amp;quot;Segoe UI&amp;quot;, Roboto, Ubuntu, Cantarell, &amp;quot;Noto Sans&amp;quot;, sans-serif, &amp;quot;Helvetica Neue&amp;quot;, Arial, &amp;quot;Apple Color Emoji&amp;quot;, &amp;quot;Segoe UI Emoji&amp;quot;, &amp;quot;Segoe UI Symbol&amp;quot;, &amp;quot;Noto Color Emoji&amp;quot;; font-size: 14px; text-align: left; background-color: rgb(247, 247, 248);&quot;&gt;取指阶段&lt;/span&gt;" style="rounded=1;whiteSpace=wrap;html=1;strokeWidth=1;fontSize=14;fontColor=#0000FF;opacity=80;fontStyle=1" parent="1" vertex="1">
          <mxGeometry x="-1330" y="960" width="120" height="60" as="geometry" />
        </mxCell>
        <mxCell id="60BEPv2QoQoY74sB4UL9-141" style="edgeStyle=orthogonalEdgeStyle;rounded=0;orthogonalLoop=1;jettySize=auto;html=1;exitX=1;exitY=0.5;exitDx=0;exitDy=0;entryX=0;entryY=0.5;entryDx=0;entryDy=0;fontSize=14;fontColor=#0000FF;" parent="1" source="60BEPv2QoQoY74sB4UL9-121" target="60BEPv2QoQoY74sB4UL9-132" edge="1">
          <mxGeometry relative="1" as="geometry" />
        </mxCell>
        <mxCell id="60BEPv2QoQoY74sB4UL9-121" value="&lt;span style=&quot;color: rgb(55, 65, 81); font-family: Söhne, ui-sans-serif, system-ui, -apple-system, &amp;quot;Segoe UI&amp;quot;, Roboto, Ubuntu, Cantarell, &amp;quot;Noto Sans&amp;quot;, sans-serif, &amp;quot;Helvetica Neue&amp;quot;, Arial, &amp;quot;Apple Color Emoji&amp;quot;, &amp;quot;Segoe UI Emoji&amp;quot;, &amp;quot;Segoe UI Symbol&amp;quot;, &amp;quot;Noto Color Emoji&amp;quot;; font-size: 14px; text-align: left; background-color: rgb(247, 247, 248);&quot;&gt;译码阶段&lt;/span&gt;" style="rounded=1;whiteSpace=wrap;html=1;strokeWidth=1;fontSize=14;fontColor=#0000FF;opacity=80;fontStyle=1" parent="1" vertex="1">
          <mxGeometry x="-1160" y="960" width="120" height="60" as="geometry" />
        </mxCell>
        <mxCell id="60BEPv2QoQoY74sB4UL9-129" style="edgeStyle=orthogonalEdgeStyle;rounded=0;orthogonalLoop=1;jettySize=auto;html=1;exitX=0;exitY=0.5;exitDx=0;exitDy=0;entryX=1;entryY=0.5;entryDx=0;entryDy=0;fontSize=14;fontColor=#0000FF;fontStyle=1" parent="1" source="60BEPv2QoQoY74sB4UL9-123" target="60BEPv2QoQoY74sB4UL9-124" edge="1">
          <mxGeometry relative="1" as="geometry" />
        </mxCell>
        <mxCell id="60BEPv2QoQoY74sB4UL9-123" value="&lt;span style=&quot;color: rgb(55, 65, 81); font-family: Söhne, ui-sans-serif, system-ui, -apple-system, &amp;quot;Segoe UI&amp;quot;, Roboto, Ubuntu, Cantarell, &amp;quot;Noto Sans&amp;quot;, sans-serif, &amp;quot;Helvetica Neue&amp;quot;, Arial, &amp;quot;Apple Color Emoji&amp;quot;, &amp;quot;Segoe UI Emoji&amp;quot;, &amp;quot;Segoe UI Symbol&amp;quot;, &amp;quot;Noto Color Emoji&amp;quot;; font-size: 14px; text-align: left; background-color: rgb(247, 247, 248);&quot;&gt;执行阶段&lt;/span&gt;" style="rounded=1;whiteSpace=wrap;html=1;strokeWidth=1;fontSize=14;fontColor=#0000FF;opacity=80;fontStyle=1" parent="1" vertex="1">
          <mxGeometry x="-990" y="1080" width="120" height="60" as="geometry" />
        </mxCell>
        <mxCell id="60BEPv2QoQoY74sB4UL9-130" style="edgeStyle=orthogonalEdgeStyle;rounded=0;orthogonalLoop=1;jettySize=auto;html=1;exitX=0;exitY=0.5;exitDx=0;exitDy=0;entryX=1;entryY=0.5;entryDx=0;entryDy=0;fontSize=14;fontColor=#0000FF;fontStyle=1" parent="1" source="60BEPv2QoQoY74sB4UL9-124" target="60BEPv2QoQoY74sB4UL9-125" edge="1">
          <mxGeometry relative="1" as="geometry" />
        </mxCell>
        <mxCell id="60BEPv2QoQoY74sB4UL9-124" value="&lt;span style=&quot;color: rgb(55, 65, 81); font-family: Söhne, ui-sans-serif, system-ui, -apple-system, &amp;quot;Segoe UI&amp;quot;, Roboto, Ubuntu, Cantarell, &amp;quot;Noto Sans&amp;quot;, sans-serif, &amp;quot;Helvetica Neue&amp;quot;, Arial, &amp;quot;Apple Color Emoji&amp;quot;, &amp;quot;Segoe UI Emoji&amp;quot;, &amp;quot;Segoe UI Symbol&amp;quot;, &amp;quot;Noto Color Emoji&amp;quot;; font-size: 14px; text-align: left; background-color: rgb(247, 247, 248);&quot;&gt;访存阶段&lt;/span&gt;" style="rounded=1;whiteSpace=wrap;html=1;strokeWidth=1;fontSize=14;fontColor=#0000FF;opacity=80;fontStyle=1" parent="1" vertex="1">
          <mxGeometry x="-1160" y="1080" width="120" height="60" as="geometry" />
        </mxCell>
        <mxCell id="60BEPv2QoQoY74sB4UL9-125" value="&lt;span style=&quot;color: rgb(55, 65, 81); font-family: Söhne, ui-sans-serif, system-ui, -apple-system, &amp;quot;Segoe UI&amp;quot;, Roboto, Ubuntu, Cantarell, &amp;quot;Noto Sans&amp;quot;, sans-serif, &amp;quot;Helvetica Neue&amp;quot;, Arial, &amp;quot;Apple Color Emoji&amp;quot;, &amp;quot;Segoe UI Emoji&amp;quot;, &amp;quot;Segoe UI Symbol&amp;quot;, &amp;quot;Noto Color Emoji&amp;quot;; font-size: 14px; text-align: left; background-color: rgb(247, 247, 248);&quot;&gt;写回阶段&lt;/span&gt;" style="rounded=1;whiteSpace=wrap;html=1;strokeWidth=1;fontSize=14;fontColor=#0000FF;opacity=80;fontStyle=1" parent="1" vertex="1">
          <mxGeometry x="-1330" y="1080" width="120" height="60" as="geometry" />
        </mxCell>
        <mxCell id="60BEPv2QoQoY74sB4UL9-142" style="edgeStyle=orthogonalEdgeStyle;rounded=0;orthogonalLoop=1;jettySize=auto;html=1;exitX=0.5;exitY=1;exitDx=0;exitDy=0;entryX=0.5;entryY=0;entryDx=0;entryDy=0;fontSize=14;fontColor=#0000FF;" parent="1" source="60BEPv2QoQoY74sB4UL9-132" target="60BEPv2QoQoY74sB4UL9-123" edge="1">
          <mxGeometry relative="1" as="geometry" />
        </mxCell>
        <mxCell id="60BEPv2QoQoY74sB4UL9-132" value="&lt;span style=&quot;color: rgb(55, 65, 81); font-family: Söhne, ui-sans-serif, system-ui, -apple-system, &amp;quot;Segoe UI&amp;quot;, Roboto, Ubuntu, Cantarell, &amp;quot;Noto Sans&amp;quot;, sans-serif, &amp;quot;Helvetica Neue&amp;quot;, Arial, &amp;quot;Apple Color Emoji&amp;quot;, &amp;quot;Segoe UI Emoji&amp;quot;, &amp;quot;Segoe UI Symbol&amp;quot;, &amp;quot;Noto Color Emoji&amp;quot;; font-size: 14px; text-align: left; background-color: rgb(247, 247, 248);&quot;&gt;冲突验证阶段&lt;/span&gt;" style="rounded=1;whiteSpace=wrap;html=1;strokeWidth=1;fontSize=14;fontColor=#0000FF;opacity=80;fontStyle=1" parent="1" vertex="1">
          <mxGeometry x="-990" y="960" width="120" height="60" as="geometry" />
        </mxCell>
        <mxCell id="r2rkjRxzSVRf2gfmq70w-1" style="edgeStyle=orthogonalEdgeStyle;rounded=0;orthogonalLoop=1;jettySize=auto;html=1;exitX=1;exitY=0.5;exitDx=0;exitDy=0;entryX=0;entryY=0.5;entryDx=0;entryDy=0;fontSize=14;fontColor=#0000FF;fontStyle=1" parent="1" source="r2rkjRxzSVRf2gfmq70w-2" target="r2rkjRxzSVRf2gfmq70w-4" edge="1">
          <mxGeometry relative="1" as="geometry" />
        </mxCell>
        <mxCell id="r2rkjRxzSVRf2gfmq70w-2" value="&lt;span style=&quot;color: rgb(55, 65, 81); font-family: Söhne, ui-sans-serif, system-ui, -apple-system, &amp;quot;Segoe UI&amp;quot;, Roboto, Ubuntu, Cantarell, &amp;quot;Noto Sans&amp;quot;, sans-serif, &amp;quot;Helvetica Neue&amp;quot;, Arial, &amp;quot;Apple Color Emoji&amp;quot;, &amp;quot;Segoe UI Emoji&amp;quot;, &amp;quot;Segoe UI Symbol&amp;quot;, &amp;quot;Noto Color Emoji&amp;quot;; font-size: 14px; text-align: left; background-color: rgb(247, 247, 248);&quot;&gt;取指阶段&lt;/span&gt;" style="rounded=1;whiteSpace=wrap;html=1;strokeWidth=1;fontSize=14;fontColor=#0000FF;opacity=80;fontStyle=1" parent="1" vertex="1">
          <mxGeometry x="-710" y="730" width="120" height="60" as="geometry" />
        </mxCell>
        <mxCell id="r2rkjRxzSVRf2gfmq70w-3" style="edgeStyle=orthogonalEdgeStyle;rounded=0;orthogonalLoop=1;jettySize=auto;html=1;exitX=1;exitY=0.5;exitDx=0;exitDy=0;entryX=0;entryY=0.5;entryDx=0;entryDy=0;fontSize=14;fontColor=#0000FF;" parent="1" source="r2rkjRxzSVRf2gfmq70w-4" target="r2rkjRxzSVRf2gfmq70w-11" edge="1">
          <mxGeometry relative="1" as="geometry" />
        </mxCell>
        <mxCell id="r2rkjRxzSVRf2gfmq70w-4" value="&lt;span style=&quot;color: rgb(55, 65, 81); font-family: Söhne, ui-sans-serif, system-ui, -apple-system, &amp;quot;Segoe UI&amp;quot;, Roboto, Ubuntu, Cantarell, &amp;quot;Noto Sans&amp;quot;, sans-serif, &amp;quot;Helvetica Neue&amp;quot;, Arial, &amp;quot;Apple Color Emoji&amp;quot;, &amp;quot;Segoe UI Emoji&amp;quot;, &amp;quot;Segoe UI Symbol&amp;quot;, &amp;quot;Noto Color Emoji&amp;quot;; font-size: 14px; text-align: left; background-color: rgb(247, 247, 248);&quot;&gt;译码阶段&lt;/span&gt;" style="rounded=1;whiteSpace=wrap;html=1;strokeWidth=1;fontSize=14;fontColor=#0000FF;opacity=80;fontStyle=1" parent="1" vertex="1">
          <mxGeometry x="-540" y="730" width="120" height="60" as="geometry" />
        </mxCell>
        <mxCell id="r2rkjRxzSVRf2gfmq70w-5" style="edgeStyle=orthogonalEdgeStyle;rounded=0;orthogonalLoop=1;jettySize=auto;html=1;exitX=0;exitY=0.5;exitDx=0;exitDy=0;entryX=1;entryY=0.5;entryDx=0;entryDy=0;fontSize=14;fontColor=#0000FF;fontStyle=1" parent="1" source="r2rkjRxzSVRf2gfmq70w-6" target="r2rkjRxzSVRf2gfmq70w-8" edge="1">
          <mxGeometry relative="1" as="geometry" />
        </mxCell>
        <mxCell id="r2rkjRxzSVRf2gfmq70w-6" value="&lt;span style=&quot;color: rgb(55, 65, 81); font-family: Söhne, ui-sans-serif, system-ui, -apple-system, &amp;quot;Segoe UI&amp;quot;, Roboto, Ubuntu, Cantarell, &amp;quot;Noto Sans&amp;quot;, sans-serif, &amp;quot;Helvetica Neue&amp;quot;, Arial, &amp;quot;Apple Color Emoji&amp;quot;, &amp;quot;Segoe UI Emoji&amp;quot;, &amp;quot;Segoe UI Symbol&amp;quot;, &amp;quot;Noto Color Emoji&amp;quot;; font-size: 14px; text-align: left; background-color: rgb(247, 247, 248);&quot;&gt;执行阶段&lt;/span&gt;" style="rounded=1;whiteSpace=wrap;html=1;strokeWidth=1;fontSize=14;fontColor=#0000FF;opacity=80;fontStyle=1" parent="1" vertex="1">
          <mxGeometry x="-370" y="850" width="120" height="60" as="geometry" />
        </mxCell>
        <mxCell id="r2rkjRxzSVRf2gfmq70w-7" style="edgeStyle=orthogonalEdgeStyle;rounded=0;orthogonalLoop=1;jettySize=auto;html=1;exitX=0;exitY=0.5;exitDx=0;exitDy=0;entryX=1;entryY=0.5;entryDx=0;entryDy=0;fontSize=14;fontColor=#0000FF;fontStyle=1" parent="1" source="r2rkjRxzSVRf2gfmq70w-8" target="r2rkjRxzSVRf2gfmq70w-9" edge="1">
          <mxGeometry relative="1" as="geometry" />
        </mxCell>
        <mxCell id="r2rkjRxzSVRf2gfmq70w-8" value="&lt;span style=&quot;color: rgb(55, 65, 81); font-family: Söhne, ui-sans-serif, system-ui, -apple-system, &amp;quot;Segoe UI&amp;quot;, Roboto, Ubuntu, Cantarell, &amp;quot;Noto Sans&amp;quot;, sans-serif, &amp;quot;Helvetica Neue&amp;quot;, Arial, &amp;quot;Apple Color Emoji&amp;quot;, &amp;quot;Segoe UI Emoji&amp;quot;, &amp;quot;Segoe UI Symbol&amp;quot;, &amp;quot;Noto Color Emoji&amp;quot;; font-size: 14px; text-align: left; background-color: rgb(247, 247, 248);&quot;&gt;访存阶段&lt;/span&gt;" style="rounded=1;whiteSpace=wrap;html=1;strokeWidth=1;fontSize=14;fontColor=#0000FF;opacity=80;fontStyle=1" parent="1" vertex="1">
          <mxGeometry x="-540" y="850" width="120" height="60" as="geometry" />
        </mxCell>
        <mxCell id="r2rkjRxzSVRf2gfmq70w-9" value="&lt;span style=&quot;color: rgb(55, 65, 81); font-family: Söhne, ui-sans-serif, system-ui, -apple-system, &amp;quot;Segoe UI&amp;quot;, Roboto, Ubuntu, Cantarell, &amp;quot;Noto Sans&amp;quot;, sans-serif, &amp;quot;Helvetica Neue&amp;quot;, Arial, &amp;quot;Apple Color Emoji&amp;quot;, &amp;quot;Segoe UI Emoji&amp;quot;, &amp;quot;Segoe UI Symbol&amp;quot;, &amp;quot;Noto Color Emoji&amp;quot;; font-size: 14px; text-align: left; background-color: rgb(247, 247, 248);&quot;&gt;写回阶段&lt;/span&gt;" style="rounded=1;whiteSpace=wrap;html=1;strokeWidth=1;fontSize=14;fontColor=#0000FF;opacity=80;fontStyle=1" parent="1" vertex="1">
          <mxGeometry x="-710" y="850" width="120" height="60" as="geometry" />
        </mxCell>
        <mxCell id="r2rkjRxzSVRf2gfmq70w-10" style="edgeStyle=orthogonalEdgeStyle;rounded=0;orthogonalLoop=1;jettySize=auto;html=1;exitX=0.5;exitY=1;exitDx=0;exitDy=0;entryX=0.5;entryY=0;entryDx=0;entryDy=0;fontSize=14;fontColor=#0000FF;" parent="1" source="r2rkjRxzSVRf2gfmq70w-11" target="r2rkjRxzSVRf2gfmq70w-6" edge="1">
          <mxGeometry relative="1" as="geometry" />
        </mxCell>
        <mxCell id="r2rkjRxzSVRf2gfmq70w-11" value="&lt;span style=&quot;color: rgb(55, 65, 81); font-family: Söhne, ui-sans-serif, system-ui, -apple-system, &amp;quot;Segoe UI&amp;quot;, Roboto, Ubuntu, Cantarell, &amp;quot;Noto Sans&amp;quot;, sans-serif, &amp;quot;Helvetica Neue&amp;quot;, Arial, &amp;quot;Apple Color Emoji&amp;quot;, &amp;quot;Segoe UI Emoji&amp;quot;, &amp;quot;Segoe UI Symbol&amp;quot;, &amp;quot;Noto Color Emoji&amp;quot;; font-size: 14px; text-align: left; background-color: rgb(247, 247, 248);&quot;&gt;冲突验证阶段&lt;/span&gt;" style="rounded=1;whiteSpace=wrap;html=1;strokeWidth=1;fontSize=14;fontColor=#0000FF;opacity=80;fontStyle=1" parent="1" vertex="1">
          <mxGeometry x="-370" y="730" width="120" height="60" as="geometry" />
        </mxCell>
        <mxCell id="kTVH6579CBkgdP0Tlpt9-114" style="edgeStyle=orthogonalEdgeStyle;rounded=0;orthogonalLoop=1;jettySize=auto;html=1;exitX=0;exitY=0.5;exitDx=0;exitDy=0;fontSize=16;startArrow=classic;startFill=1;endArrow=none;endFill=0;" parent="1" source="kTVH6579CBkgdP0Tlpt9-1" edge="1">
          <mxGeometry relative="1" as="geometry">
            <mxPoint x="-1140" y="1334" as="targetPoint" />
            <Array as="points">
              <mxPoint x="-1140" y="1334" />
            </Array>
          </mxGeometry>
        </mxCell>
        <mxCell id="kTVH6579CBkgdP0Tlpt9-1" value="膜电位缓存" style="rounded=1;whiteSpace=wrap;html=1;fontSize=16;fontStyle=1" parent="1" vertex="1">
          <mxGeometry x="-1076" y="1304" width="120" height="60" as="geometry" />
        </mxCell>
        <mxCell id="kTVH6579CBkgdP0Tlpt9-7" style="edgeStyle=orthogonalEdgeStyle;rounded=0;orthogonalLoop=1;jettySize=auto;html=1;exitX=1;exitY=0.5;exitDx=0;exitDy=0;fontSize=16;fontStyle=1" parent="1" source="kTVH6579CBkgdP0Tlpt9-1" target="kTVH6579CBkgdP0Tlpt9-9" edge="1">
          <mxGeometry relative="1" as="geometry">
            <mxPoint x="-960" y="1334" as="sourcePoint" />
            <mxPoint x="-890" y="1334" as="targetPoint" />
          </mxGeometry>
        </mxCell>
        <mxCell id="kTVH6579CBkgdP0Tlpt9-13" style="edgeStyle=orthogonalEdgeStyle;rounded=0;orthogonalLoop=1;jettySize=auto;html=1;exitX=0.5;exitY=1;exitDx=0;exitDy=0;entryX=0.5;entryY=0;entryDx=0;entryDy=0;fontSize=16;fontStyle=1" parent="1" target="kTVH6579CBkgdP0Tlpt9-9" edge="1">
          <mxGeometry relative="1" as="geometry">
            <mxPoint x="-830" y="1364" as="sourcePoint" />
          </mxGeometry>
        </mxCell>
        <mxCell id="kTVH6579CBkgdP0Tlpt9-56" style="edgeStyle=orthogonalEdgeStyle;rounded=0;orthogonalLoop=1;jettySize=auto;html=1;fontSize=16;exitX=0;exitY=0.75;exitDx=0;exitDy=0;entryX=1;entryY=0.634;entryDx=0;entryDy=0;entryPerimeter=0;fontStyle=1" parent="1" source="kTVH6579CBkgdP0Tlpt9-9" target="kTVH6579CBkgdP0Tlpt9-14" edge="1">
          <mxGeometry relative="1" as="geometry">
            <mxPoint x="-900" y="1455" as="sourcePoint" />
            <mxPoint x="-1010" y="1455" as="targetPoint" />
          </mxGeometry>
        </mxCell>
        <mxCell id="kTVH6579CBkgdP0Tlpt9-128" style="edgeStyle=orthogonalEdgeStyle;rounded=0;orthogonalLoop=1;jettySize=auto;html=1;exitX=0.25;exitY=1;exitDx=0;exitDy=0;entryX=0.804;entryY=0.018;entryDx=0;entryDy=0;entryPerimeter=0;fontSize=16;startArrow=none;startFill=0;endArrow=classicThin;endFill=1;" parent="1" edge="1">
          <mxGeometry relative="1" as="geometry">
            <mxPoint x="-847" y="1477" as="sourcePoint" />
            <mxPoint x="-838.9200000000001" y="1511.026" as="targetPoint" />
          </mxGeometry>
        </mxCell>
        <mxCell id="kTVH6579CBkgdP0Tlpt9-129" style="edgeStyle=orthogonalEdgeStyle;rounded=0;orthogonalLoop=1;jettySize=auto;html=1;exitX=0.715;exitY=1.004;exitDx=0;exitDy=0;entryX=0.895;entryY=0;entryDx=0;entryDy=0;entryPerimeter=0;fontSize=16;startArrow=classic;startFill=1;endArrow=none;endFill=0;exitPerimeter=0;" parent="1" edge="1">
          <mxGeometry relative="1" as="geometry">
            <mxPoint x="-812.2" y="1477.36" as="sourcePoint" />
            <mxPoint x="-812.5999999999999" y="1510" as="targetPoint" />
          </mxGeometry>
        </mxCell>
        <mxCell id="kTVH6579CBkgdP0Tlpt9-139" style="edgeStyle=orthogonalEdgeStyle;rounded=0;orthogonalLoop=1;jettySize=auto;html=1;exitX=1;exitY=0.5;exitDx=0;exitDy=0;entryX=0.5;entryY=0;entryDx=0;entryDy=0;fontSize=14;startArrow=classic;startFill=1;endArrow=none;endFill=0;" parent="1" source="kTVH6579CBkgdP0Tlpt9-9" target="kTVH6579CBkgdP0Tlpt9-130" edge="1">
          <mxGeometry relative="1" as="geometry" />
        </mxCell>
        <mxCell id="kTVH6579CBkgdP0Tlpt9-9" value="STDP学习模块" style="whiteSpace=wrap;html=1;rounded=1;fontSize=16;fontStyle=1" parent="1" vertex="1">
          <mxGeometry x="-890" y="1387" width="120" height="90" as="geometry" />
        </mxCell>
        <mxCell id="kTVH6579CBkgdP0Tlpt9-55" style="edgeStyle=orthogonalEdgeStyle;rounded=0;orthogonalLoop=1;jettySize=auto;html=1;exitX=1;exitY=0.25;exitDx=0;exitDy=0;entryX=0;entryY=0.5;entryDx=0;entryDy=0;fontSize=16;fontStyle=1" parent="1" source="kTVH6579CBkgdP0Tlpt9-14" target="kTVH6579CBkgdP0Tlpt9-9" edge="1">
          <mxGeometry relative="1" as="geometry" />
        </mxCell>
        <mxCell id="kTVH6579CBkgdP0Tlpt9-14" value="权值存储" style="whiteSpace=wrap;html=1;rounded=1;fontSize=16;fontStyle=1" parent="1" vertex="1">
          <mxGeometry x="-1076" y="1417" width="120" height="60" as="geometry" />
        </mxCell>
        <mxCell id="kTVH6579CBkgdP0Tlpt9-22" style="edgeStyle=orthogonalEdgeStyle;rounded=0;orthogonalLoop=1;jettySize=auto;html=1;exitX=1;exitY=0.5;exitDx=0;exitDy=0;fontSize=16;fontStyle=1" parent="1" source="kTVH6579CBkgdP0Tlpt9-16" edge="1">
          <mxGeometry relative="1" as="geometry">
            <mxPoint x="-1110" y="1750" as="targetPoint" />
          </mxGeometry>
        </mxCell>
        <mxCell id="kTVH6579CBkgdP0Tlpt9-16" value="输入脉冲缓存" style="rounded=1;whiteSpace=wrap;html=1;fontSize=16;fontStyle=1" parent="1" vertex="1">
          <mxGeometry x="-1290" y="1720" width="120" height="60" as="geometry" />
        </mxCell>
        <mxCell id="kTVH6579CBkgdP0Tlpt9-18" style="edgeStyle=orthogonalEdgeStyle;rounded=0;orthogonalLoop=1;jettySize=auto;html=1;exitX=0.5;exitY=0;exitDx=0;exitDy=0;entryX=0.5;entryY=1;entryDx=0;entryDy=0;fontSize=16;fontStyle=1" parent="1" source="kTVH6579CBkgdP0Tlpt9-17" target="kTVH6579CBkgdP0Tlpt9-16" edge="1">
          <mxGeometry relative="1" as="geometry" />
        </mxCell>
        <mxCell id="kTVH6579CBkgdP0Tlpt9-31" style="edgeStyle=orthogonalEdgeStyle;rounded=0;orthogonalLoop=1;jettySize=auto;html=1;exitX=0.5;exitY=1;exitDx=0;exitDy=0;entryX=0.005;entryY=0.59;entryDx=0;entryDy=0;entryPerimeter=0;fontSize=16;fontStyle=1" parent="1" source="kTVH6579CBkgdP0Tlpt9-17" target="kTVH6579CBkgdP0Tlpt9-30" edge="1">
          <mxGeometry relative="1" as="geometry" />
        </mxCell>
        <mxCell id="kTVH6579CBkgdP0Tlpt9-17" value="神经元n" style="rounded=1;whiteSpace=wrap;html=1;fontSize=16;fontStyle=1" parent="1" vertex="1">
          <mxGeometry x="-1290" y="1818" width="120" height="60" as="geometry" />
        </mxCell>
        <mxCell id="kTVH6579CBkgdP0Tlpt9-28" style="edgeStyle=orthogonalEdgeStyle;rounded=0;orthogonalLoop=1;jettySize=auto;html=1;exitX=0.5;exitY=0;exitDx=0;exitDy=0;fontSize=16;fontStyle=1" parent="1" source="kTVH6579CBkgdP0Tlpt9-19" target="kTVH6579CBkgdP0Tlpt9-26" edge="1">
          <mxGeometry relative="1" as="geometry" />
        </mxCell>
        <mxCell id="kTVH6579CBkgdP0Tlpt9-19" value="" style="shape=trapezoid;perimeter=trapezoidPerimeter;whiteSpace=wrap;html=1;fixedSize=1;rotation=90;fontSize=16;fontStyle=1" parent="1" vertex="1">
          <mxGeometry x="-1163.75" y="1772.75" width="157.5" height="45" as="geometry" />
        </mxCell>
        <mxCell id="kTVH6579CBkgdP0Tlpt9-25" value="脉冲时刻对比" style="text;html=1;align=center;verticalAlign=middle;resizable=0;points=[];autosize=1;strokeColor=none;fillColor=none;fontSize=16;fontStyle=1" parent="1" vertex="1">
          <mxGeometry x="-1145" y="1870" width="120" height="30" as="geometry" />
        </mxCell>
        <mxCell id="kTVH6579CBkgdP0Tlpt9-29" style="edgeStyle=orthogonalEdgeStyle;rounded=0;orthogonalLoop=1;jettySize=auto;html=1;exitX=1;exitY=0.5;exitDx=0;exitDy=0;entryX=0;entryY=0.5;entryDx=0;entryDy=0;fontSize=16;fontStyle=1" parent="1" source="kTVH6579CBkgdP0Tlpt9-26" target="kTVH6579CBkgdP0Tlpt9-27" edge="1">
          <mxGeometry relative="1" as="geometry" />
        </mxCell>
        <mxCell id="kTVH6579CBkgdP0Tlpt9-26" value="权值更新计算" style="whiteSpace=wrap;html=1;fontSize=16;fontStyle=1;rounded=1;" parent="1" vertex="1">
          <mxGeometry x="-990" y="1765" width="120" height="60" as="geometry" />
        </mxCell>
        <mxCell id="kTVH6579CBkgdP0Tlpt9-33" style="edgeStyle=orthogonalEdgeStyle;rounded=0;orthogonalLoop=1;jettySize=auto;html=1;exitX=0.5;exitY=1;exitDx=0;exitDy=0;entryX=1;entryY=0.5;entryDx=0;entryDy=0;fontSize=16;fontStyle=1" parent="1" source="kTVH6579CBkgdP0Tlpt9-27" target="kTVH6579CBkgdP0Tlpt9-30" edge="1">
          <mxGeometry relative="1" as="geometry" />
        </mxCell>
        <mxCell id="kTVH6579CBkgdP0Tlpt9-27" value="权值钳位计算" style="whiteSpace=wrap;html=1;fontSize=16;fontStyle=1;rounded=1;" parent="1" vertex="1">
          <mxGeometry x="-791" y="1765" width="120" height="60" as="geometry" />
        </mxCell>
        <mxCell id="kTVH6579CBkgdP0Tlpt9-32" style="edgeStyle=orthogonalEdgeStyle;rounded=0;orthogonalLoop=1;jettySize=auto;html=1;exitX=0.5;exitY=0;exitDx=0;exitDy=0;entryX=0.5;entryY=1;entryDx=0;entryDy=0;fontSize=16;fontStyle=1" parent="1" source="kTVH6579CBkgdP0Tlpt9-30" target="kTVH6579CBkgdP0Tlpt9-26" edge="1">
          <mxGeometry relative="1" as="geometry" />
        </mxCell>
        <mxCell id="kTVH6579CBkgdP0Tlpt9-30" value="权值存储单元" style="whiteSpace=wrap;html=1;fontSize=16;fontStyle=1;rounded=1;" parent="1" vertex="1">
          <mxGeometry x="-990" y="1910" width="120" height="60" as="geometry" />
        </mxCell>
        <mxCell id="kTVH6579CBkgdP0Tlpt9-44" style="edgeStyle=orthogonalEdgeStyle;rounded=0;orthogonalLoop=1;jettySize=auto;html=1;exitX=0.5;exitY=1;exitDx=0;exitDy=0;entryX=0.5;entryY=0;entryDx=0;entryDy=0;fontSize=16;" parent="1" source="kTVH6579CBkgdP0Tlpt9-34" target="kTVH6579CBkgdP0Tlpt9-36" edge="1">
          <mxGeometry relative="1" as="geometry" />
        </mxCell>
        <mxCell id="kTVH6579CBkgdP0Tlpt9-34" value="IDLE" style="rounded=0;whiteSpace=wrap;html=1;fontSize=16;fontStyle=1" parent="1" vertex="1">
          <mxGeometry x="-350" y="1550" width="120" height="60" as="geometry" />
        </mxCell>
        <mxCell id="kTVH6579CBkgdP0Tlpt9-74" style="edgeStyle=orthogonalEdgeStyle;rounded=0;orthogonalLoop=1;jettySize=auto;html=1;exitX=0.5;exitY=1;exitDx=0;exitDy=0;entryX=0.5;entryY=0;entryDx=0;entryDy=0;fontSize=16;" parent="1" source="kTVH6579CBkgdP0Tlpt9-35" target="kTVH6579CBkgdP0Tlpt9-68" edge="1">
          <mxGeometry relative="1" as="geometry" />
        </mxCell>
        <mxCell id="kTVH6579CBkgdP0Tlpt9-35" value="读取W_buffer" style="rounded=0;whiteSpace=wrap;html=1;fontSize=16;fontStyle=1" parent="1" vertex="1">
          <mxGeometry x="-350" y="1730" width="120" height="60" as="geometry" />
        </mxCell>
        <mxCell id="kTVH6579CBkgdP0Tlpt9-45" style="edgeStyle=orthogonalEdgeStyle;rounded=0;orthogonalLoop=1;jettySize=auto;html=1;exitX=0.5;exitY=1;exitDx=0;exitDy=0;entryX=0.5;entryY=0;entryDx=0;entryDy=0;fontSize=16;" parent="1" source="kTVH6579CBkgdP0Tlpt9-36" target="kTVH6579CBkgdP0Tlpt9-35" edge="1">
          <mxGeometry relative="1" as="geometry" />
        </mxCell>
        <mxCell id="kTVH6579CBkgdP0Tlpt9-36" value="连接到第一个神经元" style="rounded=0;whiteSpace=wrap;html=1;fontSize=16;fontStyle=1" parent="1" vertex="1">
          <mxGeometry x="-350" y="1640" width="120" height="60" as="geometry" />
        </mxCell>
        <mxCell id="kTVH6579CBkgdP0Tlpt9-73" style="edgeStyle=orthogonalEdgeStyle;rounded=0;orthogonalLoop=1;jettySize=auto;html=1;exitX=0.5;exitY=0;exitDx=0;exitDy=0;fontSize=16;" parent="1" source="kTVH6579CBkgdP0Tlpt9-37" target="kTVH6579CBkgdP0Tlpt9-43" edge="1">
          <mxGeometry relative="1" as="geometry" />
        </mxCell>
        <mxCell id="kTVH6579CBkgdP0Tlpt9-37" value="权值重新写入buffer" style="rounded=0;whiteSpace=wrap;html=1;fontSize=16;fontStyle=1" parent="1" vertex="1">
          <mxGeometry x="-120" y="1910" width="120" height="60" as="geometry" />
        </mxCell>
        <mxCell id="kTVH6579CBkgdP0Tlpt9-51" style="edgeStyle=orthogonalEdgeStyle;rounded=0;orthogonalLoop=1;jettySize=auto;html=1;exitX=0.5;exitY=0;exitDx=0;exitDy=0;entryX=0.5;entryY=1;entryDx=0;entryDy=0;fontSize=16;" parent="1" source="kTVH6579CBkgdP0Tlpt9-39" target="kTVH6579CBkgdP0Tlpt9-41" edge="1">
          <mxGeometry relative="1" as="geometry" />
        </mxCell>
        <mxCell id="kTVH6579CBkgdP0Tlpt9-39" value="根据算法更新学习率" style="rounded=0;whiteSpace=wrap;html=1;fontSize=16;fontStyle=1" parent="1" vertex="1">
          <mxGeometry x="-120" y="1730" width="120" height="60" as="geometry" />
        </mxCell>
        <mxCell id="kTVH6579CBkgdP0Tlpt9-67" style="edgeStyle=orthogonalEdgeStyle;rounded=0;orthogonalLoop=1;jettySize=auto;html=1;exitX=0.5;exitY=0;exitDx=0;exitDy=0;entryX=1;entryY=0.5;entryDx=0;entryDy=0;fontSize=16;" parent="1" source="kTVH6579CBkgdP0Tlpt9-41" target="kTVH6579CBkgdP0Tlpt9-34" edge="1">
          <mxGeometry relative="1" as="geometry" />
        </mxCell>
        <mxCell id="kTVH6579CBkgdP0Tlpt9-41" value="训练完成" style="rounded=0;whiteSpace=wrap;html=1;fontSize=16;fontStyle=1" parent="1" vertex="1">
          <mxGeometry x="-120" y="1640" width="120" height="60" as="geometry" />
        </mxCell>
        <mxCell id="kTVH6579CBkgdP0Tlpt9-77" style="edgeStyle=orthogonalEdgeStyle;rounded=0;orthogonalLoop=1;jettySize=auto;html=1;entryX=1;entryY=0.5;entryDx=0;entryDy=0;fontSize=16;" parent="1" source="kTVH6579CBkgdP0Tlpt9-43" target="kTVH6579CBkgdP0Tlpt9-35" edge="1">
          <mxGeometry relative="1" as="geometry" />
        </mxCell>
        <mxCell id="kTVH6579CBkgdP0Tlpt9-79" style="edgeStyle=orthogonalEdgeStyle;rounded=0;orthogonalLoop=1;jettySize=auto;html=1;exitX=0.5;exitY=0;exitDx=0;exitDy=0;entryX=0.5;entryY=1;entryDx=0;entryDy=0;fontSize=16;" parent="1" source="kTVH6579CBkgdP0Tlpt9-43" target="kTVH6579CBkgdP0Tlpt9-39" edge="1">
          <mxGeometry relative="1" as="geometry" />
        </mxCell>
        <mxCell id="kTVH6579CBkgdP0Tlpt9-80" style="edgeStyle=orthogonalEdgeStyle;rounded=0;orthogonalLoop=1;jettySize=auto;html=1;exitX=1;exitY=0.5;exitDx=0;exitDy=0;entryX=1;entryY=0.5;entryDx=0;entryDy=0;fontSize=16;" parent="1" source="kTVH6579CBkgdP0Tlpt9-43" target="kTVH6579CBkgdP0Tlpt9-41" edge="1">
          <mxGeometry relative="1" as="geometry">
            <Array as="points">
              <mxPoint x="40" y="1848" />
              <mxPoint x="40" y="1670" />
            </Array>
          </mxGeometry>
        </mxCell>
        <mxCell id="kTVH6579CBkgdP0Tlpt9-43" value="连接到下一个神经元" style="rounded=0;whiteSpace=wrap;html=1;fontSize=16;fontStyle=1" parent="1" vertex="1">
          <mxGeometry x="-120" y="1818" width="120" height="60" as="geometry" />
        </mxCell>
        <mxCell id="kTVH6579CBkgdP0Tlpt9-57" value="PC脉冲生成，外部控制" style="whiteSpace=wrap;html=1;rounded=1;fontSize=16;fontStyle=1;fontColor=#0000FF;" parent="1" vertex="1">
          <mxGeometry x="-1270" y="1510" width="520" height="57" as="geometry" />
        </mxCell>
        <mxCell id="kTVH6579CBkgdP0Tlpt9-61" value="" style="shape=flexArrow;endArrow=classic;startArrow=classic;html=1;rounded=0;fontSize=16;" parent="1" edge="1">
          <mxGeometry width="100" height="100" relative="1" as="geometry">
            <mxPoint x="-488" y="1359.5" as="sourcePoint" />
            <mxPoint x="-418" y="1359.5" as="targetPoint" />
          </mxGeometry>
        </mxCell>
        <mxCell id="kTVH6579CBkgdP0Tlpt9-145" style="edgeStyle=orthogonalEdgeStyle;orthogonalLoop=1;jettySize=auto;html=1;fontSize=14;fontColor=#0000FF;startArrow=none;startFill=0;endArrow=classic;endFill=1;curved=1;strokeWidth=4;strokeColor=#33FF33;" parent="1" source="kTVH6579CBkgdP0Tlpt9-57" edge="1">
          <mxGeometry relative="1" as="geometry">
            <mxPoint x="-1080" y="1330" as="targetPoint" />
            <mxPoint x="-1310" y="1539.25" as="sourcePoint" />
            <Array as="points">
              <mxPoint x="-1180" y="1330" />
            </Array>
          </mxGeometry>
        </mxCell>
        <mxCell id="kTVH6579CBkgdP0Tlpt9-75" style="edgeStyle=orthogonalEdgeStyle;rounded=0;orthogonalLoop=1;jettySize=auto;html=1;exitX=0.5;exitY=1;exitDx=0;exitDy=0;entryX=0.5;entryY=0;entryDx=0;entryDy=0;fontSize=16;" parent="1" source="kTVH6579CBkgdP0Tlpt9-68" target="kTVH6579CBkgdP0Tlpt9-69" edge="1">
          <mxGeometry relative="1" as="geometry" />
        </mxCell>
        <mxCell id="kTVH6579CBkgdP0Tlpt9-68" value="更新权值" style="whiteSpace=wrap;html=1;fontSize=16;rounded=0;fontStyle=1;" parent="1" vertex="1">
          <mxGeometry x="-350" y="1818" width="120" height="60" as="geometry" />
        </mxCell>
        <mxCell id="kTVH6579CBkgdP0Tlpt9-76" style="edgeStyle=orthogonalEdgeStyle;rounded=0;orthogonalLoop=1;jettySize=auto;html=1;exitX=1;exitY=0.5;exitDx=0;exitDy=0;entryX=0;entryY=0.5;entryDx=0;entryDy=0;fontSize=16;" parent="1" source="kTVH6579CBkgdP0Tlpt9-69" target="kTVH6579CBkgdP0Tlpt9-37" edge="1">
          <mxGeometry relative="1" as="geometry" />
        </mxCell>
        <mxCell id="kTVH6579CBkgdP0Tlpt9-69" value="钳位权值" style="whiteSpace=wrap;html=1;fontSize=16;rounded=0;fontStyle=1;" parent="1" vertex="1">
          <mxGeometry x="-350" y="1910" width="120" height="60" as="geometry" />
        </mxCell>
        <mxCell id="kTVH6579CBkgdP0Tlpt9-124" style="edgeStyle=orthogonalEdgeStyle;rounded=0;orthogonalLoop=1;jettySize=auto;html=1;exitX=0.75;exitY=1;exitDx=0;exitDy=0;entryX=0.188;entryY=0;entryDx=0;entryDy=0;entryPerimeter=0;fontSize=16;startArrow=none;startFill=0;endArrow=classicThin;endFill=1;" parent="1" edge="1">
          <mxGeometry relative="1" as="geometry">
            <mxPoint x="-1186.9999999999998" y="1482" as="sourcePoint" />
            <mxPoint x="-1187.2400000000002" y="1510" as="targetPoint" />
          </mxGeometry>
        </mxCell>
        <mxCell id="kTVH6579CBkgdP0Tlpt9-96" style="edgeStyle=orthogonalEdgeStyle;rounded=0;orthogonalLoop=1;jettySize=auto;html=1;fontSize=16;exitX=0;exitY=0.75;exitDx=0;exitDy=0;entryX=1;entryY=0.634;entryDx=0;entryDy=0;entryPerimeter=0;fontStyle=1" parent="1" edge="1">
          <mxGeometry relative="1" as="geometry">
            <mxPoint x="-1076" y="1458.16" as="sourcePoint" />
            <mxPoint x="-1142" y="1458.16" as="targetPoint" />
          </mxGeometry>
        </mxCell>
        <mxCell id="kTVH6579CBkgdP0Tlpt9-97" style="edgeStyle=orthogonalEdgeStyle;rounded=0;orthogonalLoop=1;jettySize=auto;html=1;exitX=1;exitY=0.25;exitDx=0;exitDy=0;entryX=0;entryY=0.5;entryDx=0;entryDy=0;fontSize=16;fontStyle=1" parent="1" edge="1">
          <mxGeometry relative="1" as="geometry">
            <mxPoint x="-1142" y="1435.16" as="sourcePoint" />
            <mxPoint x="-1076" y="1435.16" as="targetPoint" />
          </mxGeometry>
        </mxCell>
        <mxCell id="kTVH6579CBkgdP0Tlpt9-123" value="" style="endArrow=classic;html=1;rounded=0;fontSize=16;entryX=0.25;entryY=1;entryDx=0;entryDy=0;exitX=0.073;exitY=0;exitDx=0;exitDy=0;exitPerimeter=0;" parent="1" edge="1">
          <mxGeometry width="50" height="50" relative="1" as="geometry">
            <mxPoint x="-1219.04" y="1510" as="sourcePoint" />
            <mxPoint x="-1218.9999999999998" y="1482" as="targetPoint" />
          </mxGeometry>
        </mxCell>
        <mxCell id="kTVH6579CBkgdP0Tlpt9-137" value="" style="edgeStyle=orthogonalEdgeStyle;rounded=0;orthogonalLoop=1;jettySize=auto;html=1;fontSize=14;startArrow=classic;startFill=1;endArrow=none;endFill=0;" parent="1" source="kTVH6579CBkgdP0Tlpt9-130" target="kTVH6579CBkgdP0Tlpt9-57" edge="1">
          <mxGeometry relative="1" as="geometry" />
        </mxCell>
        <mxCell id="kTVH6579CBkgdP0Tlpt9-130" value="脉冲输入缓存" style="rounded=1;whiteSpace=wrap;html=1;fontSize=16;fontStyle=1" parent="1" vertex="1">
          <mxGeometry x="-720" y="1514" width="120" height="50" as="geometry" />
        </mxCell>
        <mxCell id="kTVH6579CBkgdP0Tlpt9-141" style="edgeStyle=orthogonalEdgeStyle;rounded=0;orthogonalLoop=1;jettySize=auto;html=1;exitX=1;exitY=0.5;exitDx=0;exitDy=0;fontSize=16;fontStyle=1" parent="1" edge="1">
          <mxGeometry relative="1" as="geometry">
            <mxPoint x="-1110" y="1847.88" as="targetPoint" />
            <mxPoint x="-1170" y="1847.88" as="sourcePoint" />
          </mxGeometry>
        </mxCell>
        <mxCell id="kTVH6579CBkgdP0Tlpt9-146" style="edgeStyle=orthogonalEdgeStyle;curved=1;orthogonalLoop=1;jettySize=auto;html=1;exitX=1;exitY=0.5;exitDx=0;exitDy=0;entryX=0.88;entryY=0.022;entryDx=0;entryDy=0;entryPerimeter=0;strokeColor=#FF8000;strokeWidth=4;fontSize=14;fontColor=#0000FF;startArrow=none;startFill=0;endArrow=classic;endFill=1;" parent="1" source="kTVH6579CBkgdP0Tlpt9-1" target="kTVH6579CBkgdP0Tlpt9-57" edge="1">
          <mxGeometry relative="1" as="geometry">
            <Array as="points">
              <mxPoint x="-956" y="1330" />
              <mxPoint x="-812" y="1330" />
            </Array>
          </mxGeometry>
        </mxCell>
        <mxCell id="kTVH6579CBkgdP0Tlpt9-148" value="核心计算模块" style="rounded=1;whiteSpace=wrap;html=1;fontSize=16;fontStyle=1" parent="1" vertex="1">
          <mxGeometry x="-1262" y="2060" width="120" height="182" as="geometry" />
        </mxCell>
        <mxCell id="kTVH6579CBkgdP0Tlpt9-149" style="edgeStyle=orthogonalEdgeStyle;rounded=0;orthogonalLoop=1;jettySize=auto;html=1;exitX=0;exitY=0.5;exitDx=0;exitDy=0;fontSize=16;startArrow=classic;startFill=1;endArrow=none;endFill=0;" parent="1" source="kTVH6579CBkgdP0Tlpt9-150" edge="1">
          <mxGeometry relative="1" as="geometry">
            <mxPoint x="-1140" y="2094" as="targetPoint" />
            <Array as="points">
              <mxPoint x="-1140" y="2094" />
            </Array>
          </mxGeometry>
        </mxCell>
        <mxCell id="kTVH6579CBkgdP0Tlpt9-150" value="膜电位缓存" style="rounded=1;whiteSpace=wrap;html=1;fontSize=16;fontStyle=1" parent="1" vertex="1">
          <mxGeometry x="-1076" y="2064" width="120" height="60" as="geometry" />
        </mxCell>
        <mxCell id="kTVH6579CBkgdP0Tlpt9-151" style="edgeStyle=orthogonalEdgeStyle;rounded=0;orthogonalLoop=1;jettySize=auto;html=1;exitX=1;exitY=0.5;exitDx=0;exitDy=0;fontSize=16;fontStyle=1;entryX=0.5;entryY=0;entryDx=0;entryDy=0;" parent="1" source="kTVH6579CBkgdP0Tlpt9-150" target="kTVH6579CBkgdP0Tlpt9-158" edge="1">
          <mxGeometry relative="1" as="geometry">
            <mxPoint x="-960" y="2094" as="sourcePoint" />
            <mxPoint x="-830" y="2140" as="targetPoint" />
          </mxGeometry>
        </mxCell>
        <mxCell id="kTVH6579CBkgdP0Tlpt9-154" style="edgeStyle=orthogonalEdgeStyle;rounded=0;orthogonalLoop=1;jettySize=auto;html=1;fontSize=16;exitX=0;exitY=0.75;exitDx=0;exitDy=0;entryX=1;entryY=0.634;entryDx=0;entryDy=0;entryPerimeter=0;fontStyle=1" parent="1" source="kTVH6579CBkgdP0Tlpt9-158" target="kTVH6579CBkgdP0Tlpt9-160" edge="1">
          <mxGeometry relative="1" as="geometry">
            <mxPoint x="-900" y="2215" as="sourcePoint" />
            <mxPoint x="-1010" y="2215" as="targetPoint" />
          </mxGeometry>
        </mxCell>
        <mxCell id="kTVH6579CBkgdP0Tlpt9-155" style="edgeStyle=orthogonalEdgeStyle;rounded=0;orthogonalLoop=1;jettySize=auto;html=1;exitX=0.25;exitY=1;exitDx=0;exitDy=0;entryX=0.804;entryY=0.018;entryDx=0;entryDy=0;entryPerimeter=0;fontSize=16;startArrow=none;startFill=0;endArrow=classicThin;endFill=1;" parent="1" edge="1">
          <mxGeometry relative="1" as="geometry">
            <mxPoint x="-847" y="2237" as="sourcePoint" />
            <mxPoint x="-838.9200000000001" y="2271.026" as="targetPoint" />
          </mxGeometry>
        </mxCell>
        <mxCell id="kTVH6579CBkgdP0Tlpt9-156" style="edgeStyle=orthogonalEdgeStyle;rounded=0;orthogonalLoop=1;jettySize=auto;html=1;exitX=0.715;exitY=1.004;exitDx=0;exitDy=0;entryX=0.895;entryY=0;entryDx=0;entryDy=0;entryPerimeter=0;fontSize=16;startArrow=classic;startFill=1;endArrow=none;endFill=0;exitPerimeter=0;" parent="1" edge="1">
          <mxGeometry relative="1" as="geometry">
            <mxPoint x="-812.2" y="2237.3599999999997" as="sourcePoint" />
            <mxPoint x="-812.5999999999999" y="2270" as="targetPoint" />
          </mxGeometry>
        </mxCell>
        <mxCell id="kTVH6579CBkgdP0Tlpt9-157" style="edgeStyle=orthogonalEdgeStyle;rounded=0;orthogonalLoop=1;jettySize=auto;html=1;exitX=1;exitY=0.5;exitDx=0;exitDy=0;entryX=0.5;entryY=0;entryDx=0;entryDy=0;fontSize=14;startArrow=classic;startFill=1;endArrow=none;endFill=0;" parent="1" source="kTVH6579CBkgdP0Tlpt9-158" target="kTVH6579CBkgdP0Tlpt9-170" edge="1">
          <mxGeometry relative="1" as="geometry" />
        </mxCell>
        <mxCell id="kTVH6579CBkgdP0Tlpt9-158" value="STDP学习模块" style="whiteSpace=wrap;html=1;rounded=1;fontSize=16;fontStyle=1" parent="1" vertex="1">
          <mxGeometry x="-890" y="2147" width="120" height="90" as="geometry" />
        </mxCell>
        <mxCell id="kTVH6579CBkgdP0Tlpt9-159" style="edgeStyle=orthogonalEdgeStyle;rounded=0;orthogonalLoop=1;jettySize=auto;html=1;exitX=1;exitY=0.25;exitDx=0;exitDy=0;entryX=0;entryY=0.5;entryDx=0;entryDy=0;fontSize=16;fontStyle=1" parent="1" source="kTVH6579CBkgdP0Tlpt9-160" target="kTVH6579CBkgdP0Tlpt9-158" edge="1">
          <mxGeometry relative="1" as="geometry" />
        </mxCell>
        <mxCell id="kTVH6579CBkgdP0Tlpt9-160" value="权值存储" style="whiteSpace=wrap;html=1;rounded=1;fontSize=16;fontStyle=1" parent="1" vertex="1">
          <mxGeometry x="-1076" y="2177" width="120" height="60" as="geometry" />
        </mxCell>
        <mxCell id="kTVH6579CBkgdP0Tlpt9-161" style="edgeStyle=orthogonalEdgeStyle;rounded=0;orthogonalLoop=1;jettySize=auto;html=1;exitX=0;exitY=0.5;exitDx=0;exitDy=0;entryX=1;entryY=0.5;entryDx=0;entryDy=0;fontSize=16;startArrow=classic;startFill=1;endArrow=none;endFill=0;" parent="1" source="kTVH6579CBkgdP0Tlpt9-162" target="kTVH6579CBkgdP0Tlpt9-164" edge="1">
          <mxGeometry relative="1" as="geometry" />
        </mxCell>
        <mxCell id="kTVH6579CBkgdP0Tlpt9-162" value="总体控制模块" style="whiteSpace=wrap;html=1;rounded=1;fontSize=16;fontStyle=1" parent="1" vertex="1">
          <mxGeometry x="-1270" y="2270" width="520" height="57" as="geometry" />
        </mxCell>
        <mxCell id="kTVH6579CBkgdP0Tlpt9-164" value="&lt;font&gt;PC生成脉冲&lt;br style=&quot;font-size: 14px;&quot;&gt;（可由Brain2等）&lt;/font&gt;" style="whiteSpace=wrap;html=1;rounded=1;fontStyle=1;fontSize=14;fontColor=#0000FF;" parent="1" vertex="1">
          <mxGeometry x="-1430" y="2268.5" width="120" height="61.5" as="geometry" />
        </mxCell>
        <mxCell id="kTVH6579CBkgdP0Tlpt9-165" style="edgeStyle=orthogonalEdgeStyle;rounded=0;orthogonalLoop=1;jettySize=auto;html=1;exitX=0.75;exitY=1;exitDx=0;exitDy=0;entryX=0.188;entryY=0;entryDx=0;entryDy=0;entryPerimeter=0;fontSize=16;startArrow=none;startFill=0;endArrow=classicThin;endFill=1;" parent="1" edge="1">
          <mxGeometry relative="1" as="geometry">
            <mxPoint x="-1186.9999999999998" y="2242" as="sourcePoint" />
            <mxPoint x="-1187.2400000000002" y="2270" as="targetPoint" />
          </mxGeometry>
        </mxCell>
        <mxCell id="kTVH6579CBkgdP0Tlpt9-166" style="edgeStyle=orthogonalEdgeStyle;rounded=0;orthogonalLoop=1;jettySize=auto;html=1;fontSize=16;exitX=0;exitY=0.75;exitDx=0;exitDy=0;entryX=1;entryY=0.634;entryDx=0;entryDy=0;entryPerimeter=0;fontStyle=1" parent="1" edge="1">
          <mxGeometry relative="1" as="geometry">
            <mxPoint x="-1076" y="2218.16" as="sourcePoint" />
            <mxPoint x="-1142" y="2218.16" as="targetPoint" />
          </mxGeometry>
        </mxCell>
        <mxCell id="kTVH6579CBkgdP0Tlpt9-167" style="edgeStyle=orthogonalEdgeStyle;rounded=0;orthogonalLoop=1;jettySize=auto;html=1;exitX=1;exitY=0.25;exitDx=0;exitDy=0;entryX=0;entryY=0.5;entryDx=0;entryDy=0;fontSize=16;fontStyle=1" parent="1" edge="1">
          <mxGeometry relative="1" as="geometry">
            <mxPoint x="-1142" y="2195.16" as="sourcePoint" />
            <mxPoint x="-1076" y="2195.16" as="targetPoint" />
          </mxGeometry>
        </mxCell>
        <mxCell id="kTVH6579CBkgdP0Tlpt9-168" value="" style="endArrow=classic;html=1;rounded=0;fontSize=16;entryX=0.25;entryY=1;entryDx=0;entryDy=0;exitX=0.073;exitY=0;exitDx=0;exitDy=0;exitPerimeter=0;" parent="1" edge="1">
          <mxGeometry width="50" height="50" relative="1" as="geometry">
            <mxPoint x="-1219.04" y="2270" as="sourcePoint" />
            <mxPoint x="-1218.9999999999998" y="2242" as="targetPoint" />
          </mxGeometry>
        </mxCell>
        <mxCell id="kTVH6579CBkgdP0Tlpt9-169" value="" style="edgeStyle=orthogonalEdgeStyle;rounded=0;orthogonalLoop=1;jettySize=auto;html=1;fontSize=14;startArrow=classic;startFill=1;endArrow=none;endFill=0;" parent="1" source="kTVH6579CBkgdP0Tlpt9-170" target="kTVH6579CBkgdP0Tlpt9-162" edge="1">
          <mxGeometry relative="1" as="geometry" />
        </mxCell>
        <mxCell id="kTVH6579CBkgdP0Tlpt9-170" value="脉冲输入缓存" style="rounded=1;whiteSpace=wrap;html=1;fontSize=16;fontStyle=1" parent="1" vertex="1">
          <mxGeometry x="-720" y="2274" width="120" height="50" as="geometry" />
        </mxCell>
        <mxCell id="kTVH6579CBkgdP0Tlpt9-172" value="核心计算模块" style="rounded=1;whiteSpace=wrap;html=1;fontSize=16;fontStyle=1" parent="1" vertex="1">
          <mxGeometry x="-212" y="1190" width="120" height="182" as="geometry" />
        </mxCell>
        <mxCell id="kTVH6579CBkgdP0Tlpt9-173" style="edgeStyle=orthogonalEdgeStyle;rounded=0;orthogonalLoop=1;jettySize=auto;html=1;exitX=0;exitY=0.5;exitDx=0;exitDy=0;fontSize=16;startArrow=classic;startFill=1;endArrow=none;endFill=0;" parent="1" source="kTVH6579CBkgdP0Tlpt9-174" edge="1">
          <mxGeometry relative="1" as="geometry">
            <mxPoint x="-90" y="1224" as="targetPoint" />
            <Array as="points">
              <mxPoint x="-90" y="1224" />
            </Array>
          </mxGeometry>
        </mxCell>
        <mxCell id="kTVH6579CBkgdP0Tlpt9-174" value="膜电位缓存" style="rounded=1;whiteSpace=wrap;html=1;fontSize=16;fontStyle=1" parent="1" vertex="1">
          <mxGeometry x="-26" y="1194" width="120" height="60" as="geometry" />
        </mxCell>
        <mxCell id="kTVH6579CBkgdP0Tlpt9-175" style="edgeStyle=orthogonalEdgeStyle;rounded=0;orthogonalLoop=1;jettySize=auto;html=1;exitX=1;exitY=0.5;exitDx=0;exitDy=0;entryX=0;entryY=0.5;entryDx=0;entryDy=0;fontSize=16;fontStyle=1" parent="1" source="kTVH6579CBkgdP0Tlpt9-174" target="kTVH6579CBkgdP0Tlpt9-177" edge="1">
          <mxGeometry relative="1" as="geometry">
            <mxPoint x="90" y="1224" as="sourcePoint" />
          </mxGeometry>
        </mxCell>
        <mxCell id="kTVH6579CBkgdP0Tlpt9-176" style="edgeStyle=orthogonalEdgeStyle;rounded=0;orthogonalLoop=1;jettySize=auto;html=1;exitX=0.5;exitY=1;exitDx=0;exitDy=0;entryX=0.5;entryY=0;entryDx=0;entryDy=0;fontSize=16;fontStyle=1" parent="1" source="kTVH6579CBkgdP0Tlpt9-177" target="kTVH6579CBkgdP0Tlpt9-182" edge="1">
          <mxGeometry relative="1" as="geometry" />
        </mxCell>
        <mxCell id="kTVH6579CBkgdP0Tlpt9-177" value="赢者选取&lt;br style=&quot;font-size: 16px;&quot;&gt;（赢者神经元）" style="whiteSpace=wrap;html=1;rounded=1;fontSize=16;fontStyle=1" parent="1" vertex="1">
          <mxGeometry x="160" y="1194" width="120" height="60" as="geometry" />
        </mxCell>
        <mxCell id="kTVH6579CBkgdP0Tlpt9-178" style="edgeStyle=orthogonalEdgeStyle;rounded=0;orthogonalLoop=1;jettySize=auto;html=1;fontSize=16;exitX=0;exitY=0.75;exitDx=0;exitDy=0;entryX=1;entryY=0.634;entryDx=0;entryDy=0;entryPerimeter=0;fontStyle=1" parent="1" source="kTVH6579CBkgdP0Tlpt9-182" target="kTVH6579CBkgdP0Tlpt9-184" edge="1">
          <mxGeometry relative="1" as="geometry">
            <mxPoint x="150" y="1345" as="sourcePoint" />
            <mxPoint x="40" y="1345" as="targetPoint" />
          </mxGeometry>
        </mxCell>
        <mxCell id="kTVH6579CBkgdP0Tlpt9-179" style="edgeStyle=orthogonalEdgeStyle;rounded=0;orthogonalLoop=1;jettySize=auto;html=1;exitX=0.25;exitY=1;exitDx=0;exitDy=0;entryX=0.804;entryY=0.018;entryDx=0;entryDy=0;entryPerimeter=0;fontSize=16;startArrow=none;startFill=0;endArrow=classicThin;endFill=1;" parent="1" edge="1">
          <mxGeometry relative="1" as="geometry">
            <mxPoint x="203" y="1367" as="sourcePoint" />
            <mxPoint x="211.07999999999993" y="1401.026" as="targetPoint" />
          </mxGeometry>
        </mxCell>
        <mxCell id="kTVH6579CBkgdP0Tlpt9-180" style="edgeStyle=orthogonalEdgeStyle;rounded=0;orthogonalLoop=1;jettySize=auto;html=1;exitX=0.715;exitY=1.004;exitDx=0;exitDy=0;entryX=0.895;entryY=0;entryDx=0;entryDy=0;entryPerimeter=0;fontSize=16;startArrow=classic;startFill=1;endArrow=none;endFill=0;exitPerimeter=0;" parent="1" edge="1">
          <mxGeometry relative="1" as="geometry">
            <mxPoint x="237.79999999999995" y="1367.36" as="sourcePoint" />
            <mxPoint x="237.4000000000001" y="1400" as="targetPoint" />
          </mxGeometry>
        </mxCell>
        <mxCell id="kTVH6579CBkgdP0Tlpt9-181" style="edgeStyle=orthogonalEdgeStyle;rounded=0;orthogonalLoop=1;jettySize=auto;html=1;exitX=1;exitY=0.5;exitDx=0;exitDy=0;entryX=0.5;entryY=0;entryDx=0;entryDy=0;fontSize=14;startArrow=classic;startFill=1;endArrow=none;endFill=0;" parent="1" source="kTVH6579CBkgdP0Tlpt9-182" target="kTVH6579CBkgdP0Tlpt9-192" edge="1">
          <mxGeometry relative="1" as="geometry" />
        </mxCell>
        <mxCell id="kTVH6579CBkgdP0Tlpt9-182" value="STDP学习模块" style="whiteSpace=wrap;html=1;rounded=1;fontSize=16;fontStyle=1" parent="1" vertex="1">
          <mxGeometry x="160" y="1277" width="120" height="90" as="geometry" />
        </mxCell>
        <mxCell id="kTVH6579CBkgdP0Tlpt9-183" style="edgeStyle=orthogonalEdgeStyle;rounded=0;orthogonalLoop=1;jettySize=auto;html=1;exitX=1;exitY=0.25;exitDx=0;exitDy=0;entryX=0;entryY=0.5;entryDx=0;entryDy=0;fontSize=16;fontStyle=1" parent="1" source="kTVH6579CBkgdP0Tlpt9-184" target="kTVH6579CBkgdP0Tlpt9-182" edge="1">
          <mxGeometry relative="1" as="geometry" />
        </mxCell>
        <mxCell id="kTVH6579CBkgdP0Tlpt9-184" value="权值存储" style="whiteSpace=wrap;html=1;rounded=1;fontSize=16;fontStyle=1" parent="1" vertex="1">
          <mxGeometry x="-26" y="1307" width="120" height="60" as="geometry" />
        </mxCell>
        <mxCell id="kTVH6579CBkgdP0Tlpt9-185" value="PC脉冲生成，外部控制" style="whiteSpace=wrap;html=1;rounded=1;fontSize=16;fontStyle=1;fontColor=#0000FF;" parent="1" vertex="1">
          <mxGeometry x="-220" y="1400" width="520" height="57" as="geometry" />
        </mxCell>
        <mxCell id="kTVH6579CBkgdP0Tlpt9-187" style="edgeStyle=orthogonalEdgeStyle;rounded=0;orthogonalLoop=1;jettySize=auto;html=1;exitX=0.75;exitY=1;exitDx=0;exitDy=0;entryX=0.188;entryY=0;entryDx=0;entryDy=0;entryPerimeter=0;fontSize=16;startArrow=none;startFill=0;endArrow=classicThin;endFill=1;" parent="1" edge="1">
          <mxGeometry relative="1" as="geometry">
            <mxPoint x="-136.99999999999977" y="1372" as="sourcePoint" />
            <mxPoint x="-137.24000000000024" y="1400" as="targetPoint" />
          </mxGeometry>
        </mxCell>
        <mxCell id="kTVH6579CBkgdP0Tlpt9-188" style="edgeStyle=orthogonalEdgeStyle;rounded=0;orthogonalLoop=1;jettySize=auto;html=1;fontSize=16;exitX=0;exitY=0.75;exitDx=0;exitDy=0;entryX=1;entryY=0.634;entryDx=0;entryDy=0;entryPerimeter=0;fontStyle=1" parent="1" edge="1">
          <mxGeometry relative="1" as="geometry">
            <mxPoint x="-26" y="1348.16" as="sourcePoint" />
            <mxPoint x="-92" y="1348.16" as="targetPoint" />
          </mxGeometry>
        </mxCell>
        <mxCell id="kTVH6579CBkgdP0Tlpt9-189" style="edgeStyle=orthogonalEdgeStyle;rounded=0;orthogonalLoop=1;jettySize=auto;html=1;exitX=1;exitY=0.25;exitDx=0;exitDy=0;entryX=0;entryY=0.5;entryDx=0;entryDy=0;fontSize=16;fontStyle=1" parent="1" edge="1">
          <mxGeometry relative="1" as="geometry">
            <mxPoint x="-92" y="1325.16" as="sourcePoint" />
            <mxPoint x="-26" y="1325.16" as="targetPoint" />
          </mxGeometry>
        </mxCell>
        <mxCell id="kTVH6579CBkgdP0Tlpt9-190" value="" style="endArrow=classic;html=1;rounded=0;fontSize=16;entryX=0.25;entryY=1;entryDx=0;entryDy=0;exitX=0.073;exitY=0;exitDx=0;exitDy=0;exitPerimeter=0;" parent="1" edge="1">
          <mxGeometry width="50" height="50" relative="1" as="geometry">
            <mxPoint x="-169.03999999999996" y="1400" as="sourcePoint" />
            <mxPoint x="-168.99999999999977" y="1372" as="targetPoint" />
          </mxGeometry>
        </mxCell>
        <mxCell id="kTVH6579CBkgdP0Tlpt9-191" value="" style="edgeStyle=orthogonalEdgeStyle;rounded=0;orthogonalLoop=1;jettySize=auto;html=1;fontSize=14;startArrow=classic;startFill=1;endArrow=none;endFill=0;" parent="1" source="kTVH6579CBkgdP0Tlpt9-192" target="kTVH6579CBkgdP0Tlpt9-185" edge="1">
          <mxGeometry relative="1" as="geometry" />
        </mxCell>
        <mxCell id="kTVH6579CBkgdP0Tlpt9-192" value="脉冲输入缓存" style="rounded=1;whiteSpace=wrap;html=1;fontSize=16;fontStyle=1" parent="1" vertex="1">
          <mxGeometry x="330" y="1404" width="120" height="50" as="geometry" />
        </mxCell>
        <mxCell id="kTVH6579CBkgdP0Tlpt9-198" style="edgeStyle=orthogonalEdgeStyle;rounded=0;orthogonalLoop=1;jettySize=auto;html=1;exitX=0.5;exitY=1;exitDx=0;exitDy=0;entryX=0.5;entryY=0;entryDx=0;entryDy=0;fontSize=16;" parent="1" source="kTVH6579CBkgdP0Tlpt9-199" target="kTVH6579CBkgdP0Tlpt9-203" edge="1">
          <mxGeometry relative="1" as="geometry" />
        </mxCell>
        <mxCell id="kTVH6579CBkgdP0Tlpt9-199" value="IDLE" style="rounded=0;whiteSpace=wrap;html=1;fontSize=16;fontStyle=1" parent="1" vertex="1">
          <mxGeometry x="-360" y="2080" width="120" height="60" as="geometry" />
        </mxCell>
        <mxCell id="kTVH6579CBkgdP0Tlpt9-200" style="edgeStyle=orthogonalEdgeStyle;rounded=0;orthogonalLoop=1;jettySize=auto;html=1;exitX=0.5;exitY=1;exitDx=0;exitDy=0;entryX=0.5;entryY=0;entryDx=0;entryDy=0;fontSize=16;" parent="1" source="kTVH6579CBkgdP0Tlpt9-201" target="kTVH6579CBkgdP0Tlpt9-215" edge="1">
          <mxGeometry relative="1" as="geometry" />
        </mxCell>
        <mxCell id="kTVH6579CBkgdP0Tlpt9-201" value="读取W_buffer" style="rounded=0;whiteSpace=wrap;html=1;fontSize=16;fontStyle=1" parent="1" vertex="1">
          <mxGeometry x="-360" y="2260" width="120" height="60" as="geometry" />
        </mxCell>
        <mxCell id="kTVH6579CBkgdP0Tlpt9-202" style="edgeStyle=orthogonalEdgeStyle;rounded=0;orthogonalLoop=1;jettySize=auto;html=1;exitX=0.5;exitY=1;exitDx=0;exitDy=0;entryX=0.5;entryY=0;entryDx=0;entryDy=0;fontSize=16;" parent="1" source="kTVH6579CBkgdP0Tlpt9-203" target="kTVH6579CBkgdP0Tlpt9-201" edge="1">
          <mxGeometry relative="1" as="geometry" />
        </mxCell>
        <mxCell id="kTVH6579CBkgdP0Tlpt9-203" value="接收到&lt;br&gt;第一个脉冲" style="rounded=0;whiteSpace=wrap;html=1;fontSize=16;fontStyle=1" parent="1" vertex="1">
          <mxGeometry x="-360" y="2170" width="120" height="60" as="geometry" />
        </mxCell>
        <mxCell id="kTVH6579CBkgdP0Tlpt9-204" style="edgeStyle=orthogonalEdgeStyle;rounded=0;orthogonalLoop=1;jettySize=auto;html=1;exitX=0.5;exitY=0;exitDx=0;exitDy=0;fontSize=16;" parent="1" source="kTVH6579CBkgdP0Tlpt9-205" target="kTVH6579CBkgdP0Tlpt9-213" edge="1">
          <mxGeometry relative="1" as="geometry" />
        </mxCell>
        <mxCell id="kTVH6579CBkgdP0Tlpt9-205" value="权值重新写入buffer" style="rounded=0;whiteSpace=wrap;html=1;fontSize=16;fontStyle=1" parent="1" vertex="1">
          <mxGeometry x="-130" y="2440" width="120" height="60" as="geometry" />
        </mxCell>
        <mxCell id="kTVH6579CBkgdP0Tlpt9-208" style="edgeStyle=orthogonalEdgeStyle;rounded=0;orthogonalLoop=1;jettySize=auto;html=1;exitX=0.5;exitY=0;exitDx=0;exitDy=0;entryX=1;entryY=0.5;entryDx=0;entryDy=0;fontSize=16;" parent="1" source="kTVH6579CBkgdP0Tlpt9-209" target="kTVH6579CBkgdP0Tlpt9-199" edge="1">
          <mxGeometry relative="1" as="geometry" />
        </mxCell>
        <mxCell id="kTVH6579CBkgdP0Tlpt9-209" value="训练完成" style="rounded=0;whiteSpace=wrap;html=1;fontSize=16;fontStyle=1" parent="1" vertex="1">
          <mxGeometry x="-130" y="2170" width="120" height="60" as="geometry" />
        </mxCell>
        <mxCell id="kTVH6579CBkgdP0Tlpt9-210" style="edgeStyle=orthogonalEdgeStyle;rounded=0;orthogonalLoop=1;jettySize=auto;html=1;entryX=1;entryY=0.5;entryDx=0;entryDy=0;fontSize=16;" parent="1" source="kTVH6579CBkgdP0Tlpt9-213" target="kTVH6579CBkgdP0Tlpt9-201" edge="1">
          <mxGeometry relative="1" as="geometry" />
        </mxCell>
        <mxCell id="kTVH6579CBkgdP0Tlpt9-219" style="edgeStyle=orthogonalEdgeStyle;curved=1;orthogonalLoop=1;jettySize=auto;html=1;exitX=0.5;exitY=0;exitDx=0;exitDy=0;entryX=0.5;entryY=1;entryDx=0;entryDy=0;strokeColor=#000000;strokeWidth=4;fontSize=14;fontColor=#0000FF;startArrow=none;startFill=0;endArrow=classic;endFill=1;" parent="1" source="kTVH6579CBkgdP0Tlpt9-213" target="kTVH6579CBkgdP0Tlpt9-209" edge="1">
          <mxGeometry relative="1" as="geometry" />
        </mxCell>
        <mxCell id="kTVH6579CBkgdP0Tlpt9-213" value="等待&lt;br&gt;下一个脉冲" style="rounded=0;whiteSpace=wrap;html=1;fontSize=16;fontStyle=1" parent="1" vertex="1">
          <mxGeometry x="-130" y="2348" width="120" height="60" as="geometry" />
        </mxCell>
        <mxCell id="kTVH6579CBkgdP0Tlpt9-214" style="edgeStyle=orthogonalEdgeStyle;rounded=0;orthogonalLoop=1;jettySize=auto;html=1;exitX=0.5;exitY=1;exitDx=0;exitDy=0;entryX=0.5;entryY=0;entryDx=0;entryDy=0;fontSize=16;" parent="1" source="kTVH6579CBkgdP0Tlpt9-215" target="kTVH6579CBkgdP0Tlpt9-217" edge="1">
          <mxGeometry relative="1" as="geometry" />
        </mxCell>
        <mxCell id="kTVH6579CBkgdP0Tlpt9-215" value="更新权值" style="whiteSpace=wrap;html=1;fontSize=16;rounded=0;fontStyle=1;" parent="1" vertex="1">
          <mxGeometry x="-360" y="2348" width="120" height="60" as="geometry" />
        </mxCell>
        <mxCell id="kTVH6579CBkgdP0Tlpt9-216" style="edgeStyle=orthogonalEdgeStyle;rounded=0;orthogonalLoop=1;jettySize=auto;html=1;exitX=1;exitY=0.5;exitDx=0;exitDy=0;entryX=0;entryY=0.5;entryDx=0;entryDy=0;fontSize=16;" parent="1" source="kTVH6579CBkgdP0Tlpt9-217" target="kTVH6579CBkgdP0Tlpt9-205" edge="1">
          <mxGeometry relative="1" as="geometry" />
        </mxCell>
        <mxCell id="kTVH6579CBkgdP0Tlpt9-217" value="钳位权值" style="whiteSpace=wrap;html=1;fontSize=16;rounded=0;fontStyle=1;" parent="1" vertex="1">
          <mxGeometry x="-360" y="2440" width="120" height="60" as="geometry" />
        </mxCell>
        <mxCell id="kTVH6579CBkgdP0Tlpt9-220" value="" style="shape=step;perimeter=stepPerimeter;whiteSpace=wrap;html=1;fixedSize=1;rounded=1;dashed=1;dashPattern=8 8;strokeColor=#66B2FF;strokeWidth=1;fontSize=14;fontColor=#0000FF;fillColor=none;" parent="1" vertex="1">
          <mxGeometry x="-1300" y="1364" width="120" height="80" as="geometry" />
        </mxCell>
        <mxCell id="Aq2AX_ONN4CkzE2bIfB9-25" style="edgeStyle=orthogonalEdgeStyle;rounded=0;orthogonalLoop=1;jettySize=auto;html=1;exitX=0.5;exitY=1;exitDx=0;exitDy=0;entryX=0.5;entryY=0;entryDx=0;entryDy=0;" parent="1" source="J7K8HW5yLFHayanLK-AE-1" target="J7K8HW5yLFHayanLK-AE-10" edge="1">
          <mxGeometry relative="1" as="geometry" />
        </mxCell>
        <mxCell id="J7K8HW5yLFHayanLK-AE-1" value="脉冲输入" style="rounded=1;whiteSpace=wrap;html=1;movable=1;resizable=1;rotatable=1;deletable=1;editable=1;locked=0;connectable=1;fontSize=17;fontStyle=1" parent="1" vertex="1">
          <mxGeometry x="-1629" y="2755" width="120" height="60" as="geometry" />
        </mxCell>
        <mxCell id="Aq2AX_ONN4CkzE2bIfB9-24" style="edgeStyle=orthogonalEdgeStyle;rounded=0;orthogonalLoop=1;jettySize=auto;html=1;exitX=0.5;exitY=1;exitDx=0;exitDy=0;entryX=0.5;entryY=0;entryDx=0;entryDy=0;" parent="1" source="J7K8HW5yLFHayanLK-AE-10" target="J7K8HW5yLFHayanLK-AE-12" edge="1">
          <mxGeometry relative="1" as="geometry" />
        </mxCell>
        <mxCell id="J7K8HW5yLFHayanLK-AE-10" value="&lt;font style=&quot;font-size: 16px;&quot;&gt;updata_pre&lt;br style=&quot;&quot;&gt;updata_权值W&lt;br&gt;&lt;/font&gt;" style="rounded=1;whiteSpace=wrap;html=1;movable=1;resizable=1;rotatable=1;deletable=1;editable=1;locked=0;connectable=1;fontSize=15;fontStyle=1" parent="1" vertex="1">
          <mxGeometry x="-1630" y="2860" width="122" height="63" as="geometry" />
        </mxCell>
        <mxCell id="Aq2AX_ONN4CkzE2bIfB9-26" style="edgeStyle=orthogonalEdgeStyle;rounded=0;orthogonalLoop=1;jettySize=auto;html=1;exitX=1;exitY=0.5;exitDx=0;exitDy=0;" parent="1" source="J7K8HW5yLFHayanLK-AE-12" target="J7K8HW5yLFHayanLK-AE-15" edge="1">
          <mxGeometry relative="1" as="geometry" />
        </mxCell>
        <mxCell id="J7K8HW5yLFHayanLK-AE-12" value="updata_post&lt;br&gt;updata_权值W" style="rounded=1;whiteSpace=wrap;html=1;movable=1;resizable=1;rotatable=1;deletable=1;editable=1;locked=0;connectable=1;fontSize=17;fontStyle=1" parent="1" vertex="1">
          <mxGeometry x="-1629" y="2990" width="120" height="60" as="geometry" />
        </mxCell>
        <mxCell id="J7K8HW5yLFHayanLK-AE-19" value="" style="edgeStyle=orthogonalEdgeStyle;rounded=0;orthogonalLoop=1;jettySize=auto;html=1;" parent="1" source="J7K8HW5yLFHayanLK-AE-15" target="J7K8HW5yLFHayanLK-AE-18" edge="1">
          <mxGeometry relative="1" as="geometry" />
        </mxCell>
        <mxCell id="J7K8HW5yLFHayanLK-AE-15" value="权值钳位" style="whiteSpace=wrap;html=1;fontSize=15;rounded=1;fontStyle=1;" parent="1" vertex="1">
          <mxGeometry x="-1443" y="2990" width="120" height="60" as="geometry" />
        </mxCell>
        <mxCell id="J7K8HW5yLFHayanLK-AE-18" value="返回更新后权值" style="whiteSpace=wrap;html=1;fontSize=15;rounded=1;fontStyle=1;" parent="1" vertex="1">
          <mxGeometry x="-1443" y="2755.5" width="120" height="59" as="geometry" />
        </mxCell>
        <mxCell id="J7K8HW5yLFHayanLK-AE-23" value="" style="rounded=1;whiteSpace=wrap;html=1;fontSize=16;fontStyle=1" parent="1" vertex="1">
          <mxGeometry x="-334.88" y="2690" width="570" height="480" as="geometry" />
        </mxCell>
        <mxCell id="J7K8HW5yLFHayanLK-AE-24" value="STDP_CONTROLLER" style="rounded=1;whiteSpace=wrap;html=1;fontSize=16;fontStyle=1" parent="1" vertex="1">
          <mxGeometry x="-284.88" y="2760" width="180" height="350" as="geometry" />
        </mxCell>
        <mxCell id="J7K8HW5yLFHayanLK-AE-25" value="on_pre_updata" style="rounded=1;whiteSpace=wrap;html=1;fontSize=16;fontStyle=1" parent="1" vertex="1">
          <mxGeometry x="5.1200000000000045" y="2760" width="180" height="140" as="geometry" />
        </mxCell>
        <mxCell id="J7K8HW5yLFHayanLK-AE-27" value="on_post_updata" style="rounded=1;whiteSpace=wrap;html=1;fontSize=16;fontStyle=1" parent="1" vertex="1">
          <mxGeometry x="5.1200000000000045" y="2969" width="180" height="140" as="geometry" />
        </mxCell>
        <mxCell id="J7K8HW5yLFHayanLK-AE-28" value="" style="shape=flexArrow;endArrow=classic;startArrow=classic;html=1;rounded=0;fontSize=16;fontStyle=1" parent="1" edge="1">
          <mxGeometry width="100" height="100" relative="1" as="geometry">
            <mxPoint x="-104.88" y="2829.38" as="sourcePoint" />
            <mxPoint x="5.1200000000000045" y="2829.38" as="targetPoint" />
          </mxGeometry>
        </mxCell>
        <mxCell id="J7K8HW5yLFHayanLK-AE-29" value="" style="shape=flexArrow;endArrow=classic;startArrow=classic;html=1;rounded=0;fontSize=16;fontStyle=1" parent="1" edge="1">
          <mxGeometry width="100" height="100" relative="1" as="geometry">
            <mxPoint x="-104.88" y="3038.37" as="sourcePoint" />
            <mxPoint x="5.1200000000000045" y="3038.37" as="targetPoint" />
          </mxGeometry>
        </mxCell>
        <mxCell id="J7K8HW5yLFHayanLK-AE-30" value="STDP_LEARNING" style="text;html=1;strokeColor=none;fillColor=none;align=center;verticalAlign=middle;whiteSpace=wrap;rounded=0;fontSize=16;fontStyle=1" parent="1" vertex="1">
          <mxGeometry x="-84.88" y="2730" width="60" height="30" as="geometry" />
        </mxCell>
        <mxCell id="J7K8HW5yLFHayanLK-AE-31" value="SNN_CONTROLLER" style="rounded=1;whiteSpace=wrap;html=1;fontSize=16;fontStyle=1" parent="1" vertex="1">
          <mxGeometry x="-791.88" y="2690" width="370" height="350" as="geometry" />
        </mxCell>
        <mxCell id="J7K8HW5yLFHayanLK-AE-32" value="" style="shape=flexArrow;endArrow=classic;startArrow=classic;html=1;rounded=0;fontSize=16;fontStyle=1" parent="1" edge="1">
          <mxGeometry width="100" height="100" relative="1" as="geometry">
            <mxPoint x="-421.88" y="2864.38" as="sourcePoint" />
            <mxPoint x="-336.76" y="2864.75" as="targetPoint" />
          </mxGeometry>
        </mxCell>
        <mxCell id="J7K8HW5yLFHayanLK-AE-35" value="MEMORY" style="rounded=1;whiteSpace=wrap;html=1;fontSize=16;fontStyle=1" parent="1" vertex="1">
          <mxGeometry x="-800" y="3110" width="386.25" height="60" as="geometry" />
        </mxCell>
        <mxCell id="J7K8HW5yLFHayanLK-AE-37" value="" style="shape=flexArrow;endArrow=classic;startArrow=classic;html=1;rounded=0;fontSize=16;fontStyle=1;entryX=0.5;entryY=0;entryDx=0;entryDy=0;exitX=0.5;exitY=1;exitDx=0;exitDy=0;" parent="1" source="J7K8HW5yLFHayanLK-AE-31" target="J7K8HW5yLFHayanLK-AE-35" edge="1">
          <mxGeometry width="100" height="100" relative="1" as="geometry">
            <mxPoint x="-627.88" y="2980" as="sourcePoint" />
            <mxPoint x="-517.88" y="2980" as="targetPoint" />
          </mxGeometry>
        </mxCell>
        <mxCell id="J7K8HW5yLFHayanLK-AE-39" value="&lt;b&gt;&lt;font style=&quot;font-size: 16px;&quot;&gt;INPUT SPIKE&lt;/font&gt;&lt;/b&gt;" style="rounded=1;whiteSpace=wrap;html=1;" parent="1" vertex="1">
          <mxGeometry x="-990" y="2704" width="130" height="315" as="geometry" />
        </mxCell>
        <mxCell id="J7K8HW5yLFHayanLK-AE-40" value="" style="shape=flexArrow;endArrow=classic;startArrow=classic;html=1;rounded=0;fontSize=16;fontStyle=1" parent="1" edge="1">
          <mxGeometry width="100" height="100" relative="1" as="geometry">
            <mxPoint x="-860" y="2864" as="sourcePoint" />
            <mxPoint x="-791" y="2864.37" as="targetPoint" />
          </mxGeometry>
        </mxCell>
        <mxCell id="Aq2AX_ONN4CkzE2bIfB9-1" value="核心计算模块" style="rounded=1;whiteSpace=wrap;html=1;fontSize=16;fontStyle=1" parent="1" vertex="1">
          <mxGeometry x="-1880" y="3410" width="120" height="182" as="geometry" />
        </mxCell>
        <mxCell id="Aq2AX_ONN4CkzE2bIfB9-2" style="edgeStyle=orthogonalEdgeStyle;rounded=0;orthogonalLoop=1;jettySize=auto;html=1;exitX=0;exitY=0.5;exitDx=0;exitDy=0;fontSize=16;startArrow=classic;startFill=1;endArrow=none;endFill=0;" parent="1" source="Aq2AX_ONN4CkzE2bIfB9-3" edge="1">
          <mxGeometry relative="1" as="geometry">
            <mxPoint x="-1758" y="3444" as="targetPoint" />
            <Array as="points">
              <mxPoint x="-1758" y="3444" />
            </Array>
          </mxGeometry>
        </mxCell>
        <mxCell id="Aq2AX_ONN4CkzE2bIfB9-3" value="内部控制模块" style="rounded=1;whiteSpace=wrap;html=1;fontSize=16;fontStyle=1" parent="1" vertex="1">
          <mxGeometry x="-1694" y="3414" width="120" height="60" as="geometry" />
        </mxCell>
        <mxCell id="Aq2AX_ONN4CkzE2bIfB9-4" style="edgeStyle=orthogonalEdgeStyle;rounded=0;orthogonalLoop=1;jettySize=auto;html=1;exitX=1;exitY=0.5;exitDx=0;exitDy=0;fontSize=16;fontStyle=1" parent="1" source="Aq2AX_ONN4CkzE2bIfB9-3" target="Aq2AX_ONN4CkzE2bIfB9-10" edge="1">
          <mxGeometry relative="1" as="geometry">
            <mxPoint x="-1578" y="3444" as="sourcePoint" />
            <mxPoint x="-1508" y="3444" as="targetPoint" />
          </mxGeometry>
        </mxCell>
        <mxCell id="Aq2AX_ONN4CkzE2bIfB9-5" style="edgeStyle=orthogonalEdgeStyle;rounded=0;orthogonalLoop=1;jettySize=auto;html=1;exitX=0.5;exitY=1;exitDx=0;exitDy=0;entryX=0.5;entryY=0;entryDx=0;entryDy=0;fontSize=16;fontStyle=1" parent="1" target="Aq2AX_ONN4CkzE2bIfB9-10" edge="1">
          <mxGeometry relative="1" as="geometry">
            <mxPoint x="-1448" y="3474" as="sourcePoint" />
          </mxGeometry>
        </mxCell>
        <mxCell id="Aq2AX_ONN4CkzE2bIfB9-6" style="edgeStyle=orthogonalEdgeStyle;rounded=0;orthogonalLoop=1;jettySize=auto;html=1;fontSize=16;exitX=0;exitY=0.75;exitDx=0;exitDy=0;entryX=1;entryY=0.634;entryDx=0;entryDy=0;entryPerimeter=0;fontStyle=1" parent="1" source="Aq2AX_ONN4CkzE2bIfB9-10" target="Aq2AX_ONN4CkzE2bIfB9-12" edge="1">
          <mxGeometry relative="1" as="geometry">
            <mxPoint x="-1518" y="3565" as="sourcePoint" />
            <mxPoint x="-1628" y="3565" as="targetPoint" />
          </mxGeometry>
        </mxCell>
        <mxCell id="Aq2AX_ONN4CkzE2bIfB9-7" style="edgeStyle=orthogonalEdgeStyle;rounded=0;orthogonalLoop=1;jettySize=auto;html=1;exitX=0.25;exitY=1;exitDx=0;exitDy=0;entryX=0.804;entryY=0.018;entryDx=0;entryDy=0;entryPerimeter=0;fontSize=16;startArrow=none;startFill=0;endArrow=classicThin;endFill=1;" parent="1" edge="1">
          <mxGeometry relative="1" as="geometry">
            <mxPoint x="-1465" y="3587" as="sourcePoint" />
            <mxPoint x="-1456.92" y="3621.026" as="targetPoint" />
          </mxGeometry>
        </mxCell>
        <mxCell id="Aq2AX_ONN4CkzE2bIfB9-8" style="edgeStyle=orthogonalEdgeStyle;rounded=0;orthogonalLoop=1;jettySize=auto;html=1;exitX=0.715;exitY=1.004;exitDx=0;exitDy=0;entryX=0.895;entryY=0;entryDx=0;entryDy=0;entryPerimeter=0;fontSize=16;startArrow=classic;startFill=1;endArrow=none;endFill=0;exitPerimeter=0;" parent="1" edge="1">
          <mxGeometry relative="1" as="geometry">
            <mxPoint x="-1430.2" y="3587.3599999999997" as="sourcePoint" />
            <mxPoint x="-1430.6" y="3620" as="targetPoint" />
          </mxGeometry>
        </mxCell>
        <mxCell id="Aq2AX_ONN4CkzE2bIfB9-10" value="STDP学习模块" style="whiteSpace=wrap;html=1;rounded=1;fontSize=16;fontStyle=1" parent="1" vertex="1">
          <mxGeometry x="-1508" y="3497" width="120" height="90" as="geometry" />
        </mxCell>
        <mxCell id="Aq2AX_ONN4CkzE2bIfB9-11" style="edgeStyle=orthogonalEdgeStyle;rounded=0;orthogonalLoop=1;jettySize=auto;html=1;exitX=1;exitY=0.25;exitDx=0;exitDy=0;entryX=0;entryY=0.5;entryDx=0;entryDy=0;fontSize=16;fontStyle=1" parent="1" source="Aq2AX_ONN4CkzE2bIfB9-12" target="Aq2AX_ONN4CkzE2bIfB9-10" edge="1">
          <mxGeometry relative="1" as="geometry" />
        </mxCell>
        <mxCell id="Aq2AX_ONN4CkzE2bIfB9-12" value="权值存储" style="whiteSpace=wrap;html=1;rounded=1;fontSize=16;fontStyle=1" parent="1" vertex="1">
          <mxGeometry x="-1694" y="3527" width="120" height="60" as="geometry" />
        </mxCell>
        <mxCell id="Aq2AX_ONN4CkzE2bIfB9-13" value="PC脉冲生成，外部控制" style="whiteSpace=wrap;html=1;rounded=1;fontSize=16;fontStyle=1;fontColor=#0000FF;" parent="1" vertex="1">
          <mxGeometry x="-1888" y="3620" width="520" height="57" as="geometry" />
        </mxCell>
        <mxCell id="Aq2AX_ONN4CkzE2bIfB9-14" style="edgeStyle=orthogonalEdgeStyle;orthogonalLoop=1;jettySize=auto;html=1;fontSize=14;fontColor=#0000FF;startArrow=none;startFill=0;endArrow=classic;endFill=1;curved=1;strokeWidth=4;strokeColor=#33FF33;" parent="1" source="Aq2AX_ONN4CkzE2bIfB9-13" edge="1">
          <mxGeometry relative="1" as="geometry">
            <mxPoint x="-1698" y="3440" as="targetPoint" />
            <mxPoint x="-1928" y="3649.25" as="sourcePoint" />
            <Array as="points">
              <mxPoint x="-1798" y="3440" />
            </Array>
          </mxGeometry>
        </mxCell>
        <mxCell id="Aq2AX_ONN4CkzE2bIfB9-15" style="edgeStyle=orthogonalEdgeStyle;rounded=0;orthogonalLoop=1;jettySize=auto;html=1;exitX=0.75;exitY=1;exitDx=0;exitDy=0;entryX=0.188;entryY=0;entryDx=0;entryDy=0;entryPerimeter=0;fontSize=16;startArrow=none;startFill=0;endArrow=classicThin;endFill=1;" parent="1" edge="1">
          <mxGeometry relative="1" as="geometry">
            <mxPoint x="-1804.9999999999998" y="3592" as="sourcePoint" />
            <mxPoint x="-1805.2400000000002" y="3620" as="targetPoint" />
          </mxGeometry>
        </mxCell>
        <mxCell id="Aq2AX_ONN4CkzE2bIfB9-16" style="edgeStyle=orthogonalEdgeStyle;rounded=0;orthogonalLoop=1;jettySize=auto;html=1;fontSize=16;exitX=0;exitY=0.75;exitDx=0;exitDy=0;entryX=1;entryY=0.634;entryDx=0;entryDy=0;entryPerimeter=0;fontStyle=1" parent="1" edge="1">
          <mxGeometry relative="1" as="geometry">
            <mxPoint x="-1694" y="3568.16" as="sourcePoint" />
            <mxPoint x="-1760" y="3568.16" as="targetPoint" />
          </mxGeometry>
        </mxCell>
        <mxCell id="Aq2AX_ONN4CkzE2bIfB9-17" style="edgeStyle=orthogonalEdgeStyle;rounded=0;orthogonalLoop=1;jettySize=auto;html=1;exitX=1;exitY=0.25;exitDx=0;exitDy=0;entryX=0;entryY=0.5;entryDx=0;entryDy=0;fontSize=16;fontStyle=1" parent="1" edge="1">
          <mxGeometry relative="1" as="geometry">
            <mxPoint x="-1760" y="3545.16" as="sourcePoint" />
            <mxPoint x="-1694" y="3545.16" as="targetPoint" />
          </mxGeometry>
        </mxCell>
        <mxCell id="Aq2AX_ONN4CkzE2bIfB9-18" value="" style="endArrow=classic;html=1;rounded=0;fontSize=16;entryX=0.25;entryY=1;entryDx=0;entryDy=0;exitX=0.073;exitY=0;exitDx=0;exitDy=0;exitPerimeter=0;" parent="1" edge="1">
          <mxGeometry width="50" height="50" relative="1" as="geometry">
            <mxPoint x="-1837.04" y="3620" as="sourcePoint" />
            <mxPoint x="-1836.9999999999998" y="3592" as="targetPoint" />
          </mxGeometry>
        </mxCell>
        <mxCell id="Aq2AX_ONN4CkzE2bIfB9-21" style="edgeStyle=orthogonalEdgeStyle;curved=1;orthogonalLoop=1;jettySize=auto;html=1;exitX=1;exitY=0.5;exitDx=0;exitDy=0;entryX=0.88;entryY=0.022;entryDx=0;entryDy=0;entryPerimeter=0;strokeColor=#FF8000;strokeWidth=4;fontSize=14;fontColor=#0000FF;startArrow=none;startFill=0;endArrow=classic;endFill=1;" parent="1" source="Aq2AX_ONN4CkzE2bIfB9-3" target="Aq2AX_ONN4CkzE2bIfB9-13" edge="1">
          <mxGeometry relative="1" as="geometry">
            <Array as="points">
              <mxPoint x="-1574" y="3440" />
              <mxPoint x="-1430" y="3440" />
            </Array>
          </mxGeometry>
        </mxCell>
        <mxCell id="t883by4WjOBxqeWVDv21-1" value="" style="rounded=1;whiteSpace=wrap;html=1;fontSize=16;fontStyle=1" vertex="1" parent="1">
          <mxGeometry x="-364.88" y="3313" width="354.88" height="328" as="geometry" />
        </mxCell>
        <mxCell id="t883by4WjOBxqeWVDv21-7" value="STDP_LEARNING" style="text;html=1;strokeColor=none;fillColor=none;align=center;verticalAlign=middle;whiteSpace=wrap;rounded=0;fontSize=16;fontStyle=1" vertex="1" parent="1">
          <mxGeometry x="-217.44" y="3467" width="60" height="30" as="geometry" />
        </mxCell>
        <mxCell id="t883by4WjOBxqeWVDv21-8" value="SNN_CONTROLLER" style="rounded=1;whiteSpace=wrap;html=1;fontSize=16;fontStyle=1" vertex="1" parent="1">
          <mxGeometry x="-821.88" y="3302" width="370" height="350" as="geometry" />
        </mxCell>
        <mxCell id="t883by4WjOBxqeWVDv21-9" value="" style="shape=flexArrow;endArrow=classic;startArrow=classic;html=1;rounded=0;fontSize=16;fontStyle=1" edge="1" parent="1">
          <mxGeometry width="100" height="100" relative="1" as="geometry">
            <mxPoint x="-451.88" y="3476.38" as="sourcePoint" />
            <mxPoint x="-366.76" y="3476.75" as="targetPoint" />
          </mxGeometry>
        </mxCell>
        <mxCell id="t883by4WjOBxqeWVDv21-10" value="MEMORY" style="rounded=1;whiteSpace=wrap;html=1;fontSize=16;fontStyle=1" vertex="1" parent="1">
          <mxGeometry x="-830" y="3722" width="386.25" height="60" as="geometry" />
        </mxCell>
        <mxCell id="t883by4WjOBxqeWVDv21-11" value="" style="shape=flexArrow;endArrow=classic;startArrow=classic;html=1;rounded=0;fontSize=16;fontStyle=1;entryX=0.5;entryY=0;entryDx=0;entryDy=0;exitX=0.5;exitY=1;exitDx=0;exitDy=0;" edge="1" parent="1" source="t883by4WjOBxqeWVDv21-8" target="t883by4WjOBxqeWVDv21-10">
          <mxGeometry width="100" height="100" relative="1" as="geometry">
            <mxPoint x="-657.88" y="3592" as="sourcePoint" />
            <mxPoint x="-547.88" y="3592" as="targetPoint" />
          </mxGeometry>
        </mxCell>
        <mxCell id="t883by4WjOBxqeWVDv21-12" value="&lt;b&gt;&lt;font style=&quot;font-size: 16px;&quot;&gt;INPUT SPIKE&lt;/font&gt;&lt;/b&gt;" style="rounded=1;whiteSpace=wrap;html=1;" vertex="1" parent="1">
          <mxGeometry x="-1020" y="3316" width="130" height="315" as="geometry" />
        </mxCell>
        <mxCell id="t883by4WjOBxqeWVDv21-13" value="" style="shape=flexArrow;endArrow=classic;startArrow=classic;html=1;rounded=0;fontSize=16;fontStyle=1" edge="1" parent="1">
          <mxGeometry width="100" height="100" relative="1" as="geometry">
            <mxPoint x="-890" y="3476" as="sourcePoint" />
            <mxPoint x="-821" y="3476.37" as="targetPoint" />
          </mxGeometry>
        </mxCell>
        <mxCell id="t883by4WjOBxqeWVDv21-38" value="" style="edgeStyle=orthogonalEdgeStyle;rounded=0;orthogonalLoop=1;jettySize=auto;html=1;fontSize=14;fontStyle=1" edge="1" parent="1" source="t883by4WjOBxqeWVDv21-33" target="t883by4WjOBxqeWVDv21-37">
          <mxGeometry relative="1" as="geometry" />
        </mxCell>
        <mxCell id="t883by4WjOBxqeWVDv21-33" value="IDLE" style="ellipse;whiteSpace=wrap;html=1;fontSize=14;fontStyle=1" vertex="1" parent="1">
          <mxGeometry x="490" y="2140" width="120" height="80" as="geometry" />
        </mxCell>
        <mxCell id="t883by4WjOBxqeWVDv21-40" value="" style="edgeStyle=orthogonalEdgeStyle;rounded=0;orthogonalLoop=1;jettySize=auto;html=1;fontSize=14;fontStyle=1" edge="1" parent="1" source="t883by4WjOBxqeWVDv21-37" target="t883by4WjOBxqeWVDv21-39">
          <mxGeometry relative="1" as="geometry" />
        </mxCell>
        <mxCell id="t883by4WjOBxqeWVDv21-37" value="receive_spike" style="ellipse;whiteSpace=wrap;html=1;fontSize=14;fontStyle=1" vertex="1" parent="1">
          <mxGeometry x="490" y="2300" width="120" height="80" as="geometry" />
        </mxCell>
        <mxCell id="t883by4WjOBxqeWVDv21-42" value="" style="edgeStyle=orthogonalEdgeStyle;rounded=0;orthogonalLoop=1;jettySize=auto;html=1;fontSize=14;fontStyle=1" edge="1" parent="1" source="t883by4WjOBxqeWVDv21-39" target="t883by4WjOBxqeWVDv21-41">
          <mxGeometry relative="1" as="geometry" />
        </mxCell>
        <mxCell id="t883by4WjOBxqeWVDv21-39" value="find_info" style="ellipse;whiteSpace=wrap;html=1;fontSize=14;fontStyle=1" vertex="1" parent="1">
          <mxGeometry x="490" y="2460" width="120" height="80" as="geometry" />
        </mxCell>
        <mxCell id="t883by4WjOBxqeWVDv21-44" value="" style="edgeStyle=orthogonalEdgeStyle;rounded=0;orthogonalLoop=1;jettySize=auto;html=1;fontSize=14;fontStyle=1" edge="1" parent="1" source="t883by4WjOBxqeWVDv21-41" target="t883by4WjOBxqeWVDv21-43">
          <mxGeometry relative="1" as="geometry" />
        </mxCell>
        <mxCell id="t883by4WjOBxqeWVDv21-41" value="send_pp_ctl" style="ellipse;whiteSpace=wrap;html=1;fontSize=14;fontStyle=1" vertex="1" parent="1">
          <mxGeometry x="490" y="2620" width="120" height="80" as="geometry" />
        </mxCell>
        <mxCell id="t883by4WjOBxqeWVDv21-46" value="" style="edgeStyle=orthogonalEdgeStyle;rounded=0;orthogonalLoop=1;jettySize=auto;html=1;fontSize=14;fontStyle=1" edge="1" parent="1" source="t883by4WjOBxqeWVDv21-43" target="t883by4WjOBxqeWVDv21-45">
          <mxGeometry relative="1" as="geometry" />
        </mxCell>
        <mxCell id="t883by4WjOBxqeWVDv21-47" style="edgeStyle=orthogonalEdgeStyle;rounded=0;orthogonalLoop=1;jettySize=auto;html=1;exitX=1;exitY=0.5;exitDx=0;exitDy=0;entryX=1;entryY=0.5;entryDx=0;entryDy=0;" edge="1" parent="1" source="t883by4WjOBxqeWVDv21-43" target="t883by4WjOBxqeWVDv21-49">
          <mxGeometry relative="1" as="geometry">
            <mxPoint x="950" y="2360" as="targetPoint" />
            <Array as="points">
              <mxPoint x="900" y="2660" />
              <mxPoint x="900" y="2340" />
            </Array>
          </mxGeometry>
        </mxCell>
        <mxCell id="t883by4WjOBxqeWVDv21-43" value="receive_pp_w" style="ellipse;whiteSpace=wrap;html=1;fontSize=14;fontStyle=1" vertex="1" parent="1">
          <mxGeometry x="690" y="2620" width="120" height="80" as="geometry" />
        </mxCell>
        <mxCell id="t883by4WjOBxqeWVDv21-51" style="edgeStyle=orthogonalEdgeStyle;rounded=0;orthogonalLoop=1;jettySize=auto;html=1;exitX=0;exitY=0.5;exitDx=0;exitDy=0;entryX=1;entryY=0.5;entryDx=0;entryDy=0;" edge="1" parent="1" source="t883by4WjOBxqeWVDv21-45" target="t883by4WjOBxqeWVDv21-39">
          <mxGeometry relative="1" as="geometry" />
        </mxCell>
        <mxCell id="t883by4WjOBxqeWVDv21-45" value="next_neuron_spike" style="ellipse;whiteSpace=wrap;html=1;fontSize=13;fontStyle=1" vertex="1" parent="1">
          <mxGeometry x="690" y="2460" width="120" height="80" as="geometry" />
        </mxCell>
        <mxCell id="t883by4WjOBxqeWVDv21-53" style="edgeStyle=orthogonalEdgeStyle;rounded=0;orthogonalLoop=1;jettySize=auto;html=1;exitX=0.5;exitY=0;exitDx=0;exitDy=0;entryX=1;entryY=0.5;entryDx=0;entryDy=0;" edge="1" parent="1" source="t883by4WjOBxqeWVDv21-49" target="t883by4WjOBxqeWVDv21-33">
          <mxGeometry relative="1" as="geometry" />
        </mxCell>
        <mxCell id="t883by4WjOBxqeWVDv21-49" value="synaptic_weight_updata" style="ellipse;whiteSpace=wrap;html=1;fontSize=13;fontStyle=1" vertex="1" parent="1">
          <mxGeometry x="690" y="2300" width="120" height="80" as="geometry" />
        </mxCell>
        <mxCell id="t883by4WjOBxqeWVDv21-56" value="input_spike_on == 1" style="text;html=1;strokeColor=none;fillColor=none;align=center;verticalAlign=middle;whiteSpace=wrap;rounded=0;fontColor=#0000FF;" vertex="1" parent="1">
          <mxGeometry x="465" y="2240" width="170" height="30" as="geometry" />
        </mxCell>
        <mxCell id="t883by4WjOBxqeWVDv21-57" value="spiking_neuron_ on == 1" style="text;html=1;strokeColor=none;fillColor=none;align=center;verticalAlign=middle;whiteSpace=wrap;rounded=0;fontColor=#0000FF;" vertex="1" parent="1">
          <mxGeometry x="465" y="2401" width="170" height="30" as="geometry" />
        </mxCell>
        <mxCell id="t883by4WjOBxqeWVDv21-60" value="spiking_neuron_ on == 1" style="text;html=1;strokeColor=none;fillColor=none;align=center;verticalAlign=middle;whiteSpace=wrap;rounded=0;fontColor=#0000FF;" vertex="1" parent="1">
          <mxGeometry x="465" y="2560" width="170" height="30" as="geometry" />
        </mxCell>
      </root>
    </mxGraphModel>
  </diagram>
</mxfile>
